<svg width="2934" height="1549" viewBox="0 0 2934 1549" fill="none" xmlns="http://www.w3.org/2000/svg">
<path d="M2495.5 310.733C2480.96 310.733 2468.03 307.826 2456.69 302.013C2445.5 296.054 2436.71 287.842 2430.31 277.377C2424.06 266.767 2420.94 254.704 2420.94 241.187C2420.94 227.089 2424.35 214.808 2431.18 204.343C2438.02 193.733 2447.61 185.594 2459.96 179.925C2472.46 174.112 2487.07 171.205 2503.78 171.205H2558.29V163.575C2558.29 148.168 2554 136.105 2545.42 127.384C2536.85 118.664 2525.22 114.304 2510.54 114.304C2499.2 114.304 2489.25 116.992 2480.67 122.37C2472.24 127.602 2465.56 135.306 2460.62 145.479C2459.6 147.66 2458.22 148.75 2456.47 148.75C2455.75 148.75 2454.8 148.532 2453.64 148.096L2430.75 136.323C2428.57 135.16 2427.48 133.634 2427.48 131.745C2427.48 130.873 2427.7 130.001 2428.13 129.129C2436.13 112.56 2447.32 99.9148 2461.71 91.1943C2476.24 82.3284 2493.25 77.8955 2512.72 77.8955C2530.45 77.8955 2545.93 81.2384 2559.16 87.9241C2572.53 94.4645 2582.78 103.839 2589.9 116.048C2597.02 128.256 2600.58 142.573 2600.58 158.996V299.396C2600.58 300.995 2600.07 302.303 2599.05 303.321C2598.18 304.193 2596.95 304.629 2595.35 304.629H2573.76C2570.42 304.629 2568.53 303.03 2568.1 299.832L2563.95 271.055C2557.41 283.7 2548.18 293.51 2536.27 300.487C2524.35 307.318 2510.76 310.733 2495.5 310.733ZM2462.14 238.789C2462.14 250.271 2465.85 259.355 2473.26 266.04C2480.82 272.726 2490.85 276.069 2503.35 276.069C2520.64 276.069 2534.09 269.529 2543.68 256.448C2553.42 243.367 2558.29 224.981 2558.29 201.291H2506.18C2492.81 201.291 2482.13 204.706 2474.13 211.537C2466.14 218.223 2462.14 227.307 2462.14 238.789Z" fill="#161D26"/>
<path d="M2211.3 304.629C2209.7 304.629 2208.4 304.193 2207.38 303.321C2206.51 302.303 2206.07 300.995 2206.07 299.396V89.2322C2206.07 87.6334 2206.51 86.398 2207.38 85.526C2208.4 84.5086 2209.7 83.9999 2211.3 83.9999H2234.19C2237.39 83.9999 2239.21 85.5986 2239.64 88.7961L2244 118.228C2250.98 105.438 2260.36 95.5546 2272.13 88.5782C2284.05 81.4564 2297.42 77.8955 2312.24 77.8955C2326.34 77.8955 2338.99 81.1657 2350.18 87.7061C2361.37 94.1011 2370.09 103.04 2376.34 114.522C2382.73 125.858 2385.93 138.576 2385.93 152.674V299.396C2385.93 300.995 2385.42 302.303 2384.4 303.321C2383.53 304.193 2382.3 304.629 2380.7 304.629H2348.21C2346.62 304.629 2345.31 304.193 2344.29 303.321C2343.42 302.303 2342.98 300.995 2342.98 299.396V161.176C2342.98 146.788 2339.35 135.669 2332.08 127.82C2324.96 119.972 2314.79 116.048 2301.56 116.048C2284.7 116.048 2271.69 122.806 2262.54 136.323C2253.52 149.84 2249.02 169.098 2249.02 194.096V299.396C2249.02 300.995 2248.51 302.303 2247.49 303.321C2246.62 304.193 2245.39 304.629 2243.79 304.629H2211.3Z" fill="#161D26"/>
<path d="M2044.61 304.629C2043.01 304.629 2041.7 304.193 2040.68 303.321C2039.81 302.304 2039.38 300.995 2039.38 299.397V8.13173C2039.38 6.53296 2039.81 5.29755 2040.68 4.42549C2041.7 3.4081 2043.01 2.89941 2044.61 2.89941H2077.09C2078.69 2.89941 2079.93 3.4081 2080.8 4.42549C2081.81 5.29755 2082.32 6.53296 2082.32 8.13173V299.397C2082.32 300.995 2081.81 302.304 2080.8 303.321C2079.93 304.193 2078.69 304.629 2077.09 304.629H2044.61Z" fill="#161D26"/>
<path d="M1912.59 310.733C1892.39 310.733 1874.73 306.01 1859.61 296.562C1844.5 286.97 1832.8 273.38 1824.51 255.794C1816.37 238.208 1812.3 217.714 1812.3 194.314C1812.3 170.914 1816.23 150.494 1824.08 133.053C1832.07 115.466 1843.34 101.877 1857.87 92.2844C1872.4 82.6918 1889.34 77.8955 1908.67 77.8955C1927.56 77.8955 1944.06 82.6191 1958.16 92.0663C1972.25 101.514 1983.08 114.812 1990.64 131.963C1998.2 148.968 2001.98 168.807 2001.98 191.48C2001.98 196.422 2001.9 200.055 2001.76 202.381C2001.47 205.724 1999.65 207.395 1996.31 207.395H1855.25C1857 228.615 1862.96 245.111 1873.13 256.884C1883.3 268.511 1896.89 274.325 1913.9 274.325C1925.09 274.325 1934.83 271.709 1943.11 266.477C1951.4 261.099 1957.94 253.323 1962.73 243.149C1963.9 240.969 1965.28 239.879 1966.88 239.879C1967.75 239.879 1968.69 240.17 1969.71 240.751L1992.82 252.524C1994.85 253.686 1995.87 255.14 1995.87 256.884C1995.87 257.756 1995.65 258.628 1995.22 259.5C1987.37 276.214 1976.4 288.932 1962.3 297.652C1948.34 306.373 1931.78 310.733 1912.59 310.733ZM1961.86 176.873C1959.83 156.525 1954.23 140.829 1945.07 129.783C1935.92 118.737 1923.78 113.214 1908.67 113.214C1893.41 113.214 1881.12 118.737 1871.82 129.783C1862.67 140.829 1857.07 156.525 1855.04 176.873H1961.86Z" fill="#161D26"/>
<path d="M1685.07 304.629C1682.16 304.629 1680.2 303.248 1679.18 300.487L1605.27 90.1044C1605.13 89.6683 1605.05 89.0143 1605.05 88.1422C1605.05 86.8342 1605.42 85.8168 1606.14 85.0901C1607.02 84.3633 1608.18 84 1609.63 84H1643.21C1646.26 84 1648.22 85.4534 1649.09 88.3603L1702.94 251.87L1756.79 88.3603C1757.66 85.4534 1759.63 84 1762.68 84H1795.16C1796.62 84 1797.71 84.3633 1798.43 85.0901C1799.3 85.8168 1799.74 86.7615 1799.74 87.9242C1799.74 88.2149 1799.59 88.9416 1799.3 90.1044L1725.62 300.487C1724.6 303.248 1722.64 304.629 1719.73 304.629H1685.07Z" fill="#161D26"/>
<path d="M1538.02 304.629C1536.42 304.629 1535.11 304.193 1534.1 303.321C1533.23 302.304 1532.79 300.996 1532.79 299.397V89.2326C1532.79 87.6339 1533.23 86.3985 1534.1 85.5264C1535.11 84.509 1536.42 84.0003 1538.02 84.0003H1570.51C1572.1 84.0003 1573.34 84.509 1574.21 85.5264C1575.23 86.3985 1575.74 87.6339 1575.74 89.2326V299.397C1575.74 300.996 1575.23 302.304 1574.21 303.321C1573.34 304.193 1572.1 304.629 1570.51 304.629H1538.02ZM1543.25 59.3649C1541.8 59.3649 1540.64 59.0742 1539.77 58.4928C1539.04 57.7661 1538.68 56.8214 1538.68 55.6587C1538.68 54.932 1538.89 54.1326 1539.33 53.2606L1560.91 4.86171C1562.08 2.24557 1564.11 0.9375 1567.02 0.9375H1606.04C1607.49 0.9375 1608.58 1.22818 1609.31 1.80954C1610.18 2.3909 1610.62 3.11761 1610.62 3.98967C1610.62 5.00706 1610.18 6.09712 1609.31 7.25986L1574.21 56.0947C1572.76 58.2748 1570.65 59.3649 1567.89 59.3649H1543.25Z" fill="#161D26"/>
<path d="M1311.81 304.629C1310.21 304.629 1308.9 304.193 1307.89 303.321C1307.01 302.303 1306.58 300.995 1306.58 299.396V89.2322C1306.58 87.6334 1307.01 86.398 1307.89 85.526C1308.9 84.5086 1310.21 83.9999 1311.81 83.9999H1334.7C1337.9 83.9999 1339.72 85.5986 1340.15 88.7961L1344.51 118.228C1351.49 105.438 1360.86 95.5546 1372.64 88.5782C1384.55 81.4564 1397.93 77.8955 1412.75 77.8955C1426.85 77.8955 1439.49 81.1657 1450.68 87.7061C1461.88 94.1011 1470.6 103.04 1476.85 114.522C1483.24 125.858 1486.44 138.576 1486.44 152.674V299.396C1486.44 300.995 1485.93 302.303 1484.91 303.321C1484.04 304.193 1482.81 304.629 1481.21 304.629H1448.72C1447.12 304.629 1445.82 304.193 1444.8 303.321C1443.93 302.303 1443.49 300.995 1443.49 299.396V161.176C1443.49 146.788 1439.86 135.669 1432.59 127.82C1425.47 119.972 1415.29 116.048 1402.07 116.048C1385.21 116.048 1372.2 122.806 1363.04 136.323C1354.03 149.84 1349.53 169.098 1349.53 194.096V299.396C1349.53 300.995 1349.02 302.303 1348 303.321C1347.13 304.193 1345.89 304.629 1344.29 304.629H1311.81Z" fill="#161D26"/>
<path d="M1172.25 310.733C1152.77 310.733 1135.76 306.01 1121.23 296.562C1106.7 287.115 1095.5 273.598 1087.66 256.012C1079.95 238.426 1076.1 217.86 1076.1 194.314C1076.1 170.769 1079.95 150.276 1087.66 132.835C1095.5 115.248 1106.7 101.732 1121.23 92.2844C1135.76 82.6918 1152.77 77.8955 1172.25 77.8955C1191.72 77.8955 1208.65 82.6918 1223.04 92.2844C1237.58 101.732 1248.69 115.248 1256.4 132.835C1264.25 150.276 1268.17 170.769 1268.17 194.314C1268.17 217.86 1264.25 238.426 1256.4 256.012C1248.69 273.598 1237.58 287.115 1223.04 296.562C1208.65 306.01 1191.72 310.733 1172.25 310.733ZM1119.92 194.314C1119.92 219.168 1124.5 238.571 1133.66 252.524C1142.81 266.331 1155.68 273.235 1172.25 273.235C1188.81 273.235 1201.68 266.331 1210.83 252.524C1219.99 238.571 1224.57 219.168 1224.57 194.314C1224.57 169.461 1219.99 150.13 1210.83 136.323C1201.68 122.37 1188.81 115.394 1172.25 115.394C1155.68 115.394 1142.81 122.37 1133.66 136.323C1124.5 150.13 1119.92 169.461 1119.92 194.314Z" fill="#161D26"/>
<path d="M862.381 370.033C860.782 370.033 859.474 369.524 858.457 368.507C857.584 367.634 857.148 366.399 857.148 364.8V89.2322C857.148 87.6334 857.584 86.398 858.457 85.526C859.474 84.5086 860.782 83.9999 862.381 83.9999H885.272C888.47 83.9999 890.286 85.5986 890.722 88.7961L895.083 117.792C901.768 105.292 910.852 95.5546 922.334 88.5782C933.962 81.4564 947.042 77.8955 961.577 77.8955C978.727 77.8955 993.77 82.7645 1006.71 92.5024C1019.79 102.095 1029.89 115.684 1037.01 133.271C1044.13 150.857 1047.69 171.278 1047.69 194.532C1047.69 217.787 1044.13 238.208 1037.01 255.794C1029.89 273.235 1019.79 286.752 1006.71 296.344C993.77 305.937 978.727 310.733 961.577 310.733C948.35 310.733 936.432 307.826 925.822 302.013C915.358 296.199 906.783 287.914 900.097 277.159V364.8C900.097 366.399 899.588 367.634 898.571 368.507C897.699 369.524 896.463 370.033 894.865 370.033H862.381ZM899.443 194.75C899.443 219.458 904.021 238.716 913.178 252.524C922.334 266.331 935.197 273.235 951.766 273.235C968.335 273.235 981.198 266.331 990.354 252.524C999.511 238.716 1004.09 219.386 1004.09 194.532C1004.09 169.679 999.511 150.276 990.354 136.323C981.198 122.37 968.335 115.394 951.766 115.394C935.197 115.394 922.334 122.37 913.178 136.323C904.021 150.276 899.443 169.752 899.443 194.75Z" fill="#161D26"/>
<path d="M735.707 310.733C694.72 310.733 666.015 293.655 649.592 259.5C649.155 258.628 648.938 257.756 648.938 256.884C648.938 255.14 649.955 253.686 651.99 252.524L674.445 240.969C675.462 240.388 676.407 240.097 677.279 240.097C678.878 240.097 680.259 241.187 681.421 243.367C691.45 264.732 708.964 275.415 733.962 275.415C747.334 275.415 758.017 272.581 766.01 266.913C774.149 261.099 778.219 253.396 778.219 243.803C778.219 237.117 775.966 231.667 771.461 227.452C767.1 223.237 761.577 219.894 754.892 217.424C748.351 214.808 739.267 211.973 727.64 208.921C712.089 204.706 699.444 200.564 689.706 196.494C679.968 192.28 671.611 185.957 664.634 177.527C657.658 169.098 654.17 157.906 654.17 143.953C654.17 130.582 657.44 118.955 663.98 109.071C670.521 99.0428 679.823 91.3397 691.886 85.962C704.095 80.5844 718.338 77.8955 734.616 77.8955C754.383 77.8955 771.533 82.1104 786.068 90.5403C800.602 98.8247 811.866 111.179 819.859 127.602C820.295 128.474 820.514 129.347 820.514 130.219C820.514 131.817 819.496 133.198 817.461 134.361L795.442 145.697C794.425 146.279 793.553 146.57 792.826 146.57C791.082 146.57 789.628 145.479 788.466 143.299C783.524 133.416 776.548 125.858 767.536 120.626C758.671 115.394 748.206 112.778 736.143 112.778C723.643 112.778 713.687 115.466 706.275 120.844C699.008 126.222 695.374 133.416 695.374 142.427C695.374 148.822 697.482 154.055 701.697 158.124C706.057 162.194 711.434 165.464 717.83 167.935C724.37 170.406 733.526 173.24 745.299 176.437C760.996 180.652 773.786 184.94 783.669 189.3C793.698 193.515 802.2 199.91 809.177 208.485C816.299 216.915 819.859 228.106 819.859 242.059C819.859 255.867 816.371 267.93 809.395 278.249C802.564 288.568 792.753 296.562 779.963 302.231C767.318 307.899 752.566 310.733 735.707 310.733Z" fill="#161D26"/>
<path d="M576.891 304.629C575.293 304.629 573.985 304.193 572.967 303.321C572.095 302.304 571.659 300.996 571.659 299.397V89.2327C571.659 87.6339 572.095 86.3985 572.967 85.5265C573.985 84.5091 575.293 84.0004 576.891 84.0004H609.375C610.974 84.0004 612.209 84.5091 613.081 85.5265C614.099 86.3985 614.608 87.6339 614.608 89.2327V299.397C614.608 300.996 614.099 302.304 613.081 303.321C612.209 304.193 610.974 304.629 609.375 304.629H576.891ZM565.555 29.7152C565.555 22.0121 568.098 15.7624 573.185 10.9661C578.417 6.02452 585.03 3.55371 593.024 3.55371C601.163 3.55371 607.776 6.02452 612.863 10.9661C618.096 15.7624 620.712 22.0121 620.712 29.7152C620.712 37.273 618.096 43.5227 612.863 48.4643C607.776 53.2606 601.163 55.6587 593.024 55.6587C585.03 55.6587 578.417 53.2606 573.185 48.4643C568.098 43.5227 565.555 37.273 565.555 29.7152Z" fill="#161D26"/>
<path d="M419.42 310.733C402.269 310.733 387.154 305.937 374.073 296.345C361.138 286.752 351.109 273.163 343.987 255.576C336.866 237.99 333.305 217.569 333.305 194.315C333.305 171.06 336.866 150.712 343.987 133.271C351.109 115.685 361.138 102.095 374.073 92.5026C387.154 82.7647 402.269 77.8958 419.42 77.8958C432.5 77.8958 444.346 80.8753 454.956 86.8343C465.566 92.648 474.214 100.86 480.899 111.47V8.13173C480.899 6.53296 481.335 5.29755 482.207 4.42549C483.225 3.4081 484.533 2.89941 486.132 2.89941H518.615C520.214 2.89941 521.45 3.4081 522.322 4.42549C523.339 5.29755 523.848 6.53296 523.848 8.13173V299.397C523.848 300.995 523.339 302.304 522.322 303.321C521.45 304.193 520.214 304.629 518.615 304.629H495.724C492.527 304.629 490.71 303.03 490.274 299.833L485.914 270.837C479.228 283.482 470.071 293.292 458.444 300.269C446.962 307.245 433.954 310.733 419.42 310.733ZM376.907 194.315C376.907 219.168 381.485 238.571 390.642 252.524C399.799 266.331 412.661 273.235 429.23 273.235C445.799 273.235 458.662 266.331 467.819 252.524C476.975 238.571 481.553 219.168 481.553 194.315C481.553 169.461 476.975 150.131 467.819 136.323C458.662 122.37 445.799 115.394 429.23 115.394C412.661 115.394 399.799 122.37 390.642 136.323C381.485 150.131 376.907 169.461 376.907 194.315Z" fill="#161D26"/>
<path d="M143.939 1087.44C115.539 1087.44 90.5391 1081.24 68.9391 1068.84C47.3391 1056.04 30.5391 1038.44 18.5391 1016.04C6.53906 993.245 0.539062 967.045 0.539062 937.445C0.539062 901.845 9.33906 870.645 26.9391 843.845C44.9391 817.045 70.3391 796.444 103.139 782.044C136.339 767.645 175.139 760.445 219.539 760.445C239.939 760.445 256.539 761.845 269.339 764.645V752.045C269.339 721.645 263.739 699.045 252.539 684.245C241.339 669.045 224.339 661.445 201.539 661.445C164.739 661.445 141.139 680.845 130.739 719.645C127.539 730.845 120.939 735.644 110.939 734.044L29.3391 719.645C23.3391 718.445 19.1391 715.844 16.7391 711.844C14.7391 707.844 14.5391 702.445 16.1391 695.645C26.5391 654.845 48.5391 623.244 82.1391 600.844C116.139 578.044 158.739 566.645 209.939 566.645C270.739 566.645 316.939 583.045 348.539 615.845C380.539 648.645 396.539 696.445 396.539 759.245V1061.04C396.539 1065.44 394.939 1069.24 391.739 1072.44C388.939 1075.24 385.339 1076.64 380.939 1076.64H302.939C293.339 1076.64 287.339 1071.44 284.939 1061.04L272.939 1004.64H268.139C257.339 1031.04 241.139 1051.44 219.539 1065.84C198.339 1080.24 173.139 1087.44 143.939 1087.44ZM131.339 923.044C131.339 944.244 136.739 961.245 147.539 974.045C158.739 986.445 173.739 992.645 192.539 992.645C217.339 992.645 236.339 981.645 249.539 959.645C262.739 937.245 269.339 905.245 269.339 863.645V831.845C258.139 829.845 247.539 828.845 237.539 828.845C204.739 828.845 178.739 837.445 159.539 854.645C140.739 871.445 131.339 894.244 131.339 923.044ZM470.939 593.044C470.939 588.645 472.339 585.045 475.139 582.245C478.339 579.045 482.139 577.445 486.539 577.445H565.739C570.139 577.445 573.739 578.845 576.539 581.645C579.739 584.445 581.739 588.245 582.539 593.044L594.539 651.845H599.339C610.139 624.245 625.539 603.245 645.539 588.845C665.939 574.045 689.939 566.645 717.539 566.645C747.139 566.645 772.539 574.445 793.739 590.044C815.339 605.645 831.939 627.845 843.539 656.645H848.339C865.939 626.245 885.739 603.645 907.739 588.845C929.739 574.045 954.339 566.645 981.539 566.645C1011.14 566.645 1036.74 574.644 1058.34 590.644C1080.34 606.644 1097.14 629.444 1108.74 659.044C1120.34 688.644 1126.14 723.644 1126.14 764.044V1061.04C1126.14 1065.44 1124.54 1069.24 1121.34 1072.44C1118.54 1075.24 1114.94 1076.64 1110.54 1076.64H1014.54C1010.14 1076.64 1006.34 1075.24 1003.14 1072.44C1000.34 1069.24 998.939 1065.44 998.939 1061.04V773.645C998.939 744.445 993.339 722.045 982.139 706.445C970.939 690.845 954.739 683.044 933.539 683.044C910.339 683.044 892.539 692.245 880.139 710.645C868.139 729.045 862.139 755.645 862.139 790.445V1061.04C862.139 1065.44 860.539 1069.24 857.339 1072.44C854.539 1075.24 850.939 1076.64 846.539 1076.64H750.539C746.139 1076.64 742.339 1075.24 739.139 1072.44C736.339 1069.24 734.939 1065.44 734.939 1061.04V773.645C734.939 744.445 729.339 722.045 718.139 706.445C706.939 690.845 690.739 683.044 669.539 683.044C646.339 683.044 628.539 692.245 616.139 710.645C604.139 729.045 598.139 755.645 598.139 790.445V1061.04C598.139 1065.44 596.539 1069.24 593.339 1072.44C590.539 1075.24 586.939 1076.64 582.539 1076.64H486.539C482.139 1076.64 478.339 1075.24 475.139 1072.44C472.339 1069.24 470.939 1065.44 470.939 1061.04V593.044ZM1188.54 937.445C1188.54 901.845 1197.34 870.645 1214.94 843.845C1232.94 817.045 1258.34 796.444 1291.14 782.044C1324.34 767.645 1363.14 760.445 1407.54 760.445C1427.94 760.445 1444.54 761.845 1457.34 764.645V752.045C1457.34 721.645 1451.74 699.045 1440.54 684.245C1429.34 669.045 1412.34 661.445 1389.54 661.445C1352.74 661.445 1329.14 680.845 1318.74 719.645C1315.54 730.845 1308.94 735.644 1298.94 734.044L1217.34 719.645C1211.34 718.445 1207.14 715.844 1204.74 711.844C1202.74 707.844 1202.54 702.445 1204.14 695.645C1214.54 654.845 1236.54 623.244 1270.14 600.844C1304.14 578.044 1346.74 566.645 1397.94 566.645C1458.74 566.645 1504.94 583.045 1536.54 615.845C1568.54 648.645 1584.54 696.445 1584.54 759.245V1061.04C1584.54 1065.44 1582.94 1069.24 1579.74 1072.44C1576.94 1075.24 1573.34 1076.64 1568.94 1076.64H1490.94C1481.34 1076.64 1475.34 1071.44 1472.94 1061.04L1460.94 1004.64H1456.14C1445.34 1031.04 1429.14 1051.44 1407.54 1065.84C1386.34 1080.24 1361.14 1087.44 1331.94 1087.44C1303.54 1087.44 1278.54 1081.24 1256.94 1068.84C1235.34 1056.04 1218.54 1038.44 1206.54 1016.04C1194.54 993.245 1188.54 967.045 1188.54 937.445ZM1319.34 923.044C1319.34 944.244 1324.74 961.245 1335.54 974.045C1346.74 986.445 1361.74 992.645 1380.54 992.645C1405.34 992.645 1424.34 981.645 1437.54 959.645C1450.74 937.245 1457.34 905.245 1457.34 863.645V831.845C1446.14 829.845 1435.54 828.845 1425.54 828.845C1392.74 828.845 1366.74 837.445 1347.54 854.645C1328.74 871.445 1319.34 894.244 1319.34 923.044ZM1649.34 988.445C1649.34 979.645 1651.74 972.045 1656.54 965.645L1861.74 678.245H1669.74C1665.34 678.245 1661.54 676.845 1658.34 674.045C1655.54 670.845 1654.14 667.044 1654.14 662.644V593.044C1654.14 588.645 1655.54 585.045 1658.34 582.245C1661.54 579.045 1665.34 577.445 1669.74 577.445H1985.34C1989.74 577.445 1993.34 579.045 1996.14 582.245C1999.34 585.045 2000.94 588.645 2000.94 593.044V665.644C2000.94 674.444 1998.54 682.045 1993.74 688.445L1807.74 944.044C1818.94 942.044 1830.34 941.044 1841.94 941.044C1870.74 941.044 1897.14 943.645 1921.14 948.845C1945.54 953.645 1970.74 961.645 1996.74 972.845C2005.94 976.845 2010.54 983.645 2010.54 993.245V1062.24C2010.54 1068.64 2008.54 1073.04 2004.54 1075.44C2000.54 1077.44 1995.54 1077.24 1989.54 1074.84C1959.54 1063.64 1932.94 1055.84 1909.74 1051.44C1886.94 1046.64 1861.94 1044.24 1834.74 1044.24C1807.94 1044.24 1781.54 1046.64 1755.54 1051.44C1729.94 1056.24 1701.54 1064.04 1670.34 1074.84C1664.34 1076.84 1659.34 1076.84 1655.34 1074.84C1651.34 1072.44 1649.34 1068.24 1649.34 1062.24V988.445ZM2036.94 827.045C2036.94 778.245 2046.34 734.045 2065.14 694.445C2083.94 654.445 2109.74 623.244 2142.54 600.844C2175.74 578.044 2212.54 566.645 2252.94 566.645C2293.74 566.645 2330.54 578.044 2363.34 600.844C2396.54 623.244 2422.54 654.445 2441.34 694.445C2460.54 734.045 2470.14 778.245 2470.14 827.045C2470.14 875.845 2460.54 920.245 2441.34 960.245C2422.54 999.845 2396.54 1031.04 2363.34 1053.84C2330.54 1076.24 2293.74 1087.44 2252.94 1087.44C2212.54 1087.44 2175.74 1076.24 2142.54 1053.84C2109.74 1031.04 2083.94 999.845 2065.14 960.245C2046.34 920.245 2036.94 875.845 2036.94 827.045ZM2168.94 827.045C2168.94 877.845 2176.14 917.045 2190.54 944.645C2204.94 971.845 2225.74 985.445 2252.94 985.445C2280.14 985.445 2301.14 971.845 2315.94 944.645C2330.74 917.045 2338.14 877.845 2338.14 827.045C2338.14 776.245 2330.74 737.245 2315.94 710.045C2301.14 682.445 2280.14 668.645 2252.94 668.645C2225.74 668.645 2204.94 682.445 2190.54 710.045C2176.14 737.245 2168.94 776.245 2168.94 827.045ZM2534.94 593.044C2534.94 588.645 2536.34 585.045 2539.14 582.245C2542.34 579.045 2546.14 577.445 2550.54 577.445H2629.74C2634.14 577.445 2637.74 578.845 2640.54 581.645C2643.74 584.445 2645.74 588.245 2646.54 593.044L2658.54 651.845H2663.34C2674.14 624.645 2689.94 603.645 2710.74 588.845C2731.94 574.045 2756.74 566.645 2785.14 566.645C2815.54 566.645 2841.74 574.644 2863.74 590.644C2886.14 606.644 2903.34 629.444 2915.34 659.044C2927.34 688.644 2933.34 723.644 2933.34 764.044V1061.04C2933.34 1065.44 2931.74 1069.24 2928.54 1072.44C2925.74 1075.24 2922.14 1076.64 2917.74 1076.64H2821.74C2817.34 1076.64 2813.54 1075.24 2810.34 1072.44C2807.54 1069.24 2806.14 1065.44 2806.14 1061.04V773.645C2806.14 744.445 2800.14 722.045 2788.14 706.445C2776.14 690.845 2759.14 683.044 2737.14 683.044C2712.74 683.044 2694.14 692.245 2681.34 710.645C2668.54 729.045 2662.14 755.645 2662.14 790.445V1061.04C2662.14 1065.44 2660.54 1069.24 2657.34 1072.44C2654.54 1075.24 2650.94 1076.64 2646.54 1076.64H2550.54C2546.14 1076.64 2542.34 1075.24 2539.14 1072.44C2536.34 1069.24 2534.94 1065.44 2534.94 1061.04V593.044Z" fill="#161D26"/>
<path d="M334.142 1145.65C326.542 1151.65 324.942 1161.65 329.342 1175.65C333.342 1188.05 342.742 1203.45 357.542 1221.85C417.142 1295.45 488.142 1356.65 570.542 1405.45C652.942 1454.25 741.142 1490.25 835.142 1513.45C929.542 1537.05 1025.94 1548.85 1124.34 1548.85C1250.34 1548.85 1370.34 1530.45 1484.34 1493.65C1598.34 1457.25 1693.54 1406.05 1769.94 1340.05C1796.74 1316.45 1810.14 1297.65 1810.14 1283.65C1810.14 1278.45 1807.94 1273.25 1803.54 1268.05C1797.54 1262.05 1790.34 1260.05 1781.94 1262.05C1773.54 1264.05 1761.74 1269.05 1746.54 1277.05C1673.34 1315.45 1584.14 1346.05 1478.94 1368.85C1374.14 1392.05 1264.74 1403.65 1150.74 1403.65C1009.54 1403.65 873.142 1384.45 741.542 1346.05C609.942 1307.65 493.342 1247.65 391.742 1166.05C376.942 1154.45 364.942 1147.05 355.742 1143.85C346.942 1140.65 339.742 1141.25 334.142 1145.65Z" fill="#161D26"/>
<path d="M1667.34 1175.65C1658.94 1183.65 1656.74 1192.05 1660.74 1200.85C1663.54 1207.25 1668.94 1210.85 1676.94 1211.65C1684.94 1212.85 1696.34 1212.05 1711.14 1209.25C1735.14 1204.05 1760.14 1200.45 1786.14 1198.45C1812.14 1196.85 1834.74 1197.25 1853.94 1199.65C1873.14 1202.45 1885.14 1207.25 1889.94 1214.05C1897.14 1224.85 1894.54 1247.65 1882.14 1282.45C1870.14 1317.25 1853.74 1351.05 1832.94 1383.85C1824.94 1397.05 1820.14 1407.45 1818.54 1415.05C1816.94 1422.65 1818.94 1429.05 1824.54 1434.25C1828.14 1437.85 1832.14 1439.65 1836.54 1439.65C1848.14 1439.65 1864.94 1429.45 1886.94 1409.05C1926.54 1374.65 1954.34 1333.85 1970.34 1286.65C1979.14 1262.25 1984.54 1236.65 1986.54 1209.85C1988.54 1183.05 1985.54 1163.85 1977.54 1152.25C1969.94 1141.05 1953.14 1131.85 1927.14 1124.65C1901.54 1117.45 1875.74 1113.85 1849.74 1113.85C1798.94 1113.85 1750.74 1125.85 1705.14 1149.85C1688.34 1159.05 1675.74 1167.65 1667.34 1175.65Z" fill="#161D26"/>
</svg>
