<svg width="4068" height="1547" viewBox="0 0 4068 1547" fill="none" xmlns="http://www.w3.org/2000/svg">
<path d="M3009.69 302.468C3008.09 302.468 3006.78 302.032 3005.77 301.16C3004.89 300.142 3004.46 298.834 3004.46 297.235V87.071C3004.46 85.4723 3004.89 84.2369 3005.77 83.3648C3006.78 82.3474 3008.09 81.8387 3009.69 81.8387H3032.58C3035.78 81.8387 3037.59 83.4375 3038.03 86.635L3042.39 116.067C3049.37 103.277 3058.74 93.3934 3070.51 86.417C3082.43 79.2953 3095.8 75.7344 3110.63 75.7344C3124.73 75.7344 3137.37 79.0046 3148.56 85.545C3159.75 91.94 3168.48 100.879 3174.72 112.361C3181.12 123.697 3184.32 136.415 3184.32 150.513V297.235C3184.32 298.834 3183.81 300.142 3182.79 301.16C3181.92 302.032 3180.68 302.468 3179.09 302.468H3146.6C3145 302.468 3143.69 302.032 3142.68 301.16C3141.8 300.142 3141.37 298.834 3141.37 297.235V159.015C3141.37 144.626 3137.74 133.508 3130.47 125.659C3123.35 117.811 3113.17 113.887 3099.95 113.887C3083.09 113.887 3070.08 120.645 3060.92 134.162C3051.91 147.679 3047.41 166.936 3047.41 191.935V297.235C3047.41 298.834 3046.9 300.142 3045.88 301.16C3045.01 302.032 3043.77 302.468 3042.17 302.468H3009.69Z" fill="#161D26"/>
<path d="M2877.67 308.572C2857.47 308.572 2839.81 303.848 2824.69 294.401C2809.58 284.809 2797.88 271.219 2789.59 253.633C2781.45 236.046 2777.38 215.553 2777.38 192.153C2777.38 168.753 2781.31 148.333 2789.16 130.892C2797.15 113.305 2808.41 99.7158 2822.95 90.1232C2837.48 80.5307 2854.41 75.7344 2873.74 75.7344C2892.64 75.7344 2909.14 80.458 2923.23 89.9052C2937.33 99.3524 2948.16 112.651 2955.72 129.802C2963.28 146.807 2967.05 166.646 2967.05 189.319C2967.05 194.261 2966.98 197.894 2966.84 200.22C2966.55 203.563 2964.73 205.234 2961.39 205.234H2820.33C2822.08 226.454 2828.03 242.95 2838.21 254.723C2848.38 266.35 2861.97 272.164 2878.98 272.164C2890.17 272.164 2899.91 269.548 2908.19 264.315C2916.47 258.938 2923.02 251.162 2927.81 240.988C2928.97 238.808 2930.36 237.718 2931.95 237.718C2932.83 237.718 2933.77 238.009 2934.79 238.59L2957.9 250.363C2959.93 251.525 2960.95 252.979 2960.95 254.723C2960.95 255.595 2960.73 256.467 2960.3 257.339C2952.45 274.053 2941.47 286.771 2927.38 295.491C2913.42 304.212 2896.85 308.572 2877.67 308.572ZM2926.94 174.712C2924.9 154.364 2919.31 138.667 2910.15 127.621C2901 116.575 2888.86 111.052 2873.74 111.052C2858.48 111.052 2846.2 116.575 2836.9 127.621C2827.74 138.667 2822.15 154.364 2820.11 174.712H2926.94Z" fill="#161D26"/>
<path d="M2584.51 308.572C2564.31 308.572 2546.65 303.848 2531.54 294.401C2516.42 284.809 2504.72 271.219 2496.44 253.633C2488.3 236.046 2484.23 215.553 2484.23 192.153C2484.23 168.753 2488.15 148.333 2496 130.892C2503.99 113.305 2515.26 99.7158 2529.79 90.1232C2544.33 80.5307 2561.26 75.7344 2580.59 75.7344C2599.48 75.7344 2615.98 80.458 2630.08 89.9052C2644.18 99.3524 2655 112.651 2662.56 129.802C2670.12 146.807 2673.9 166.646 2673.9 189.319C2673.9 194.261 2673.82 197.894 2673.68 200.22C2673.39 203.563 2671.57 205.234 2668.23 205.234H2527.18C2528.92 226.454 2534.88 242.95 2545.05 254.723C2555.23 266.35 2568.82 272.164 2585.82 272.164C2597.01 272.164 2606.75 269.548 2615.03 264.315C2623.32 258.938 2629.86 251.162 2634.66 240.988C2635.82 238.808 2637.2 237.718 2638.8 237.718C2639.67 237.718 2640.61 238.009 2641.63 238.59L2664.74 250.363C2666.78 251.525 2667.79 252.979 2667.79 254.723C2667.79 255.595 2667.58 256.467 2667.14 257.339C2659.29 274.053 2648.32 286.771 2634.22 295.491C2620.27 304.212 2603.7 308.572 2584.51 308.572ZM2633.78 174.712C2631.75 154.364 2626.15 138.667 2617 127.621C2607.84 116.575 2595.7 111.052 2580.59 111.052C2565.33 111.052 2553.05 116.575 2543.74 127.621C2534.59 138.667 2528.99 154.364 2526.96 174.712H2633.78Z" fill="#161D26"/>
<path d="M2408.47 302.468C2406.87 302.468 2405.56 302.032 2404.54 301.16C2403.67 300.142 2403.23 298.834 2403.23 297.236V5.9706C2403.23 4.37183 2403.67 3.13642 2404.54 2.26436C2405.56 1.24697 2406.87 0.738281 2408.47 0.738281H2440.95C2442.55 0.738281 2443.78 1.24697 2444.66 2.26436C2445.67 3.13642 2446.18 4.37183 2446.18 5.9706V297.236C2446.18 298.834 2445.67 300.142 2444.66 301.16C2443.78 302.032 2442.55 302.468 2440.95 302.468H2408.47Z" fill="#161D26"/>
<path d="M2278.9 308.572C2264.37 308.572 2251.29 305.084 2239.66 298.108C2228.18 291.131 2219.1 281.321 2212.41 268.676L2208.05 297.672C2207.61 300.869 2205.8 302.468 2202.6 302.468H2179.71C2178.11 302.468 2176.8 302.032 2175.78 301.16C2174.91 300.142 2174.48 298.834 2174.48 297.236V5.9706C2174.48 4.37183 2174.91 3.13642 2175.78 2.26436C2176.8 1.24697 2178.11 0.738281 2179.71 0.738281H2212.19C2213.79 0.738281 2215.03 1.24697 2215.9 2.26436C2216.92 3.13642 2217.43 4.37183 2217.43 5.9706V109.309C2224.11 98.6987 2232.76 90.4868 2243.37 84.6732C2253.98 78.7142 2265.82 75.7346 2278.9 75.7346C2296.05 75.7346 2311.1 80.6036 2324.03 90.3415C2337.11 99.9341 2347.22 113.524 2354.34 131.11C2361.46 148.551 2365.02 168.899 2365.02 192.153C2365.02 215.408 2361.46 235.829 2354.34 253.415C2347.22 271.001 2337.11 284.591 2324.03 294.183C2311.1 303.776 2296.05 308.572 2278.9 308.572ZM2216.77 192.153C2216.77 217.007 2221.35 236.41 2230.51 250.363C2239.66 264.17 2252.53 271.074 2269.09 271.074C2285.66 271.074 2298.53 264.17 2307.68 250.363C2316.84 236.41 2321.42 217.007 2321.42 192.153C2321.42 167.3 2316.84 147.97 2307.68 134.162C2298.53 120.209 2285.66 113.233 2269.09 113.233C2252.53 113.233 2239.66 120.209 2230.51 134.162C2221.35 147.97 2216.77 167.3 2216.77 192.153Z" fill="#161D26"/>
<path d="M2088.91 302.468C2087.31 302.468 2086 302.032 2084.99 301.16C2084.11 300.143 2083.68 298.835 2083.68 297.236V87.0716C2083.68 85.4728 2084.11 84.2374 2084.99 83.3654C2086 82.348 2087.31 81.8393 2088.91 81.8393H2121.39C2122.99 81.8393 2124.23 82.348 2125.1 83.3654C2126.12 84.2374 2126.63 85.4728 2126.63 87.0716V297.236C2126.63 298.835 2126.12 300.143 2125.1 301.16C2124.23 302.032 2122.99 302.468 2121.39 302.468H2088.91ZM2077.57 27.5541C2077.57 19.851 2080.12 13.6013 2085.2 8.80499C2090.44 3.86338 2097.05 1.39258 2105.04 1.39258C2113.18 1.39258 2119.8 3.86338 2124.88 8.80499C2130.12 13.6013 2132.73 19.851 2132.73 27.5541C2132.73 35.1119 2130.12 41.3616 2124.88 46.3032C2119.8 51.0995 2113.18 53.4976 2105.04 53.4976C2097.05 53.4976 2090.44 51.0995 2085.2 46.3032C2080.12 41.3616 2077.57 35.1119 2077.57 27.5541Z" fill="#161D26"/>
<path d="M1862.7 302.468C1861.11 302.468 1859.8 302.032 1858.78 301.16C1857.91 300.142 1857.47 298.834 1857.47 297.235V87.071C1857.47 85.4723 1857.91 84.2369 1858.78 83.3648C1859.8 82.3474 1861.11 81.8387 1862.7 81.8387H1885.6C1888.79 81.8387 1890.61 83.4375 1891.05 86.635L1895.41 116.067C1902.38 103.277 1911.76 93.3934 1923.53 86.417C1935.45 79.2953 1948.82 75.7344 1963.64 75.7344C1977.74 75.7344 1990.39 79.0046 2001.58 85.545C2012.77 91.94 2021.49 100.879 2027.74 112.361C2034.14 123.697 2037.33 136.415 2037.33 150.513V297.235C2037.33 298.834 2036.82 300.142 2035.81 301.16C2034.94 302.032 2033.7 302.468 2032.1 302.468H1999.62C1998.02 302.468 1996.71 302.032 1995.69 301.16C1994.82 300.142 1994.38 298.834 1994.38 297.235V159.015C1994.38 144.626 1990.75 133.508 1983.48 125.659C1976.36 117.811 1966.19 113.887 1952.96 113.887C1936.1 113.887 1923.09 120.645 1913.94 134.162C1904.93 147.679 1900.42 166.936 1900.42 191.935V297.235C1900.42 298.834 1899.91 300.142 1898.9 301.16C1898.02 302.032 1896.79 302.468 1895.19 302.468H1862.7Z" fill="#161D26"/>
<path d="M1723.14 308.572C1703.66 308.572 1686.65 303.848 1672.12 294.401C1657.59 284.954 1646.4 271.437 1638.55 253.851C1630.84 236.264 1626.99 215.699 1626.99 192.153C1626.99 168.608 1630.84 148.115 1638.55 130.674C1646.4 113.087 1657.59 99.5704 1672.12 90.1232C1686.65 80.5307 1703.66 75.7344 1723.14 75.7344C1742.61 75.7344 1759.54 80.5307 1773.93 90.1232C1788.47 99.5704 1799.59 113.087 1807.29 130.674C1815.14 148.115 1819.06 168.608 1819.06 192.153C1819.06 215.699 1815.14 236.264 1807.29 253.851C1799.59 271.437 1788.47 284.954 1773.93 294.401C1759.54 303.848 1742.61 308.572 1723.14 308.572ZM1670.81 192.153C1670.81 217.007 1675.39 236.41 1684.55 250.363C1693.7 264.17 1706.57 271.074 1723.14 271.074C1739.7 271.074 1752.57 264.17 1761.72 250.363C1770.88 236.41 1775.46 217.007 1775.46 192.153C1775.46 167.3 1770.88 147.969 1761.72 134.162C1752.57 120.209 1739.7 113.233 1723.14 113.233C1706.57 113.233 1693.7 120.209 1684.55 134.162C1675.39 147.969 1670.81 167.3 1670.81 192.153Z" fill="#161D26"/>
<path d="M1413.28 367.871C1411.68 367.871 1410.37 367.363 1409.35 366.345C1408.48 365.473 1408.04 364.238 1408.04 362.639V87.071C1408.04 85.4723 1408.48 84.2369 1409.35 83.3648C1410.37 82.3474 1411.68 81.8387 1413.28 81.8387H1436.17C1439.36 81.8387 1441.18 83.4375 1441.62 86.635L1445.98 115.631C1452.66 103.131 1461.75 93.3934 1473.23 86.417C1484.86 79.2953 1497.94 75.7344 1512.47 75.7344C1529.62 75.7344 1544.66 80.6033 1557.6 90.3412C1570.68 99.9338 1580.78 113.523 1587.9 131.11C1595.03 148.696 1598.59 169.117 1598.59 192.371C1598.59 215.626 1595.03 236.046 1587.9 253.633C1580.78 271.074 1570.68 284.591 1557.6 294.183C1544.66 303.776 1529.62 308.572 1512.47 308.572C1499.24 308.572 1487.33 305.665 1476.72 299.851C1466.25 294.038 1457.68 285.753 1450.99 274.998V362.639C1450.99 364.238 1450.48 365.473 1449.47 366.345C1448.59 367.363 1447.36 367.871 1445.76 367.871H1413.28ZM1450.34 192.589C1450.34 217.297 1454.92 236.555 1464.07 250.363C1473.23 264.17 1486.09 271.074 1502.66 271.074C1519.23 271.074 1532.09 264.17 1541.25 250.363C1550.41 236.555 1554.98 217.225 1554.98 192.371C1554.98 167.518 1550.41 148.115 1541.25 134.162C1532.09 120.209 1519.23 113.233 1502.66 113.233C1486.09 113.233 1473.23 120.209 1464.07 134.162C1454.92 148.115 1450.34 167.59 1450.34 192.589Z" fill="#161D26"/>
<path d="M1286.6 308.572C1245.61 308.572 1216.91 291.494 1200.48 257.339C1200.05 256.467 1199.83 255.595 1199.83 254.723C1199.83 252.979 1200.85 251.525 1202.88 250.363L1225.34 238.808C1226.35 238.227 1227.3 237.936 1228.17 237.936C1229.77 237.936 1231.15 239.026 1232.31 241.206C1242.34 262.571 1259.85 273.254 1284.85 273.254C1298.22 273.254 1308.91 270.42 1316.9 264.751C1325.04 258.938 1329.11 251.235 1329.11 241.642C1329.11 234.956 1326.86 229.506 1322.35 225.291C1317.99 221.076 1312.47 217.733 1305.78 215.263C1299.24 212.646 1290.16 209.812 1278.53 206.76C1262.98 202.545 1250.33 198.403 1240.6 194.333C1230.86 190.118 1222.5 183.796 1215.53 175.366C1208.55 166.936 1205.06 155.745 1205.06 141.792C1205.06 128.421 1208.33 116.793 1214.87 106.91C1221.41 96.8816 1230.71 89.1785 1242.78 83.8009C1254.99 78.4232 1269.23 75.7344 1285.51 75.7344C1305.27 75.7344 1322.42 79.9493 1336.96 88.3791C1351.49 96.6636 1362.76 109.018 1370.75 125.441C1371.19 126.313 1371.4 127.185 1371.4 128.057C1371.4 129.656 1370.39 131.037 1368.35 132.2L1346.33 143.536C1345.32 144.118 1344.44 144.408 1343.72 144.408C1341.97 144.408 1340.52 143.318 1339.36 141.138C1334.41 131.255 1327.44 123.697 1318.43 118.465C1309.56 113.233 1299.1 110.616 1287.03 110.616C1274.53 110.616 1264.58 113.305 1257.17 118.683C1249.9 124.061 1246.26 131.255 1246.26 140.266C1246.26 146.661 1248.37 151.894 1252.59 155.963C1256.95 160.033 1262.33 163.303 1268.72 165.774C1275.26 168.244 1284.42 171.079 1296.19 174.276C1311.89 178.491 1324.68 182.779 1334.56 187.139C1344.59 191.354 1353.09 197.749 1360.07 206.324C1367.19 214.754 1370.75 225.945 1370.75 239.898C1370.75 253.705 1367.26 265.769 1360.29 276.088C1353.45 286.407 1343.64 294.401 1330.85 300.069C1318.21 305.738 1303.46 308.572 1286.6 308.572Z" fill="#161D26"/>
<path d="M1127.78 302.468C1126.18 302.468 1124.88 302.032 1123.86 301.16C1122.99 300.143 1122.55 298.835 1122.55 297.236V87.0716C1122.55 85.4728 1122.99 84.2374 1123.86 83.3654C1124.88 82.348 1126.18 81.8393 1127.78 81.8393H1160.27C1161.86 81.8393 1163.1 82.348 1163.97 83.3654C1164.99 84.2374 1165.5 85.4728 1165.5 87.0716V297.236C1165.5 298.835 1164.99 300.143 1163.97 301.16C1163.1 302.032 1161.86 302.468 1160.27 302.468H1127.78ZM1116.45 27.5541C1116.45 19.851 1118.99 13.6013 1124.08 8.80499C1129.31 3.86338 1135.92 1.39258 1143.91 1.39258C1152.05 1.39258 1158.67 3.86338 1163.75 8.80499C1168.99 13.6013 1171.6 19.851 1171.6 27.5541C1171.6 35.1119 1168.99 41.3616 1163.75 46.3032C1158.67 51.0995 1152.05 53.4976 1143.91 53.4976C1135.92 53.4976 1129.31 51.0995 1124.08 46.3032C1118.99 41.3616 1116.45 35.1119 1116.45 27.5541Z" fill="#161D26"/>
<path d="M970.31 308.572C953.16 308.572 938.044 303.776 924.964 294.183C912.028 284.591 902 271.001 894.878 253.415C887.756 235.829 884.195 215.408 884.195 192.153C884.195 168.899 887.756 148.551 894.878 131.11C902 113.524 912.028 99.9341 924.964 90.3415C938.044 80.6036 953.16 75.7346 970.31 75.7346C983.391 75.7346 995.236 78.7142 1005.85 84.6732C1016.46 90.4868 1025.1 98.6987 1031.79 109.309V5.9706C1031.79 4.37183 1032.23 3.13642 1033.1 2.26436C1034.12 1.24697 1035.42 0.738281 1037.02 0.738281H1069.51C1071.1 0.738281 1072.34 1.24697 1073.21 2.26436C1074.23 3.13642 1074.74 4.37183 1074.74 5.9706V297.236C1074.74 298.834 1074.23 300.142 1073.21 301.16C1072.34 302.032 1071.1 302.468 1069.51 302.468H1046.61C1043.42 302.468 1041.6 300.869 1041.16 297.672L1036.8 268.676C1030.12 281.321 1020.96 291.131 1009.33 298.108C997.853 305.084 984.845 308.572 970.31 308.572ZM927.798 192.153C927.798 217.007 932.376 236.41 941.533 250.363C950.689 264.17 963.552 271.074 980.121 271.074C996.69 271.074 1009.55 264.17 1018.71 250.363C1027.87 236.41 1032.44 217.007 1032.44 192.153C1032.44 167.3 1027.87 147.97 1018.71 134.162C1009.55 120.209 996.69 113.233 980.121 113.233C963.552 113.233 950.689 120.209 941.533 134.162C932.376 147.97 927.798 167.3 927.798 192.153Z" fill="#161D26"/>
<path d="M143.937 1085.28C115.537 1085.28 90.5371 1079.08 68.9371 1066.68C47.3371 1053.88 30.5371 1036.28 18.5371 1013.88C6.53711 991.081 0.537109 964.881 0.537109 935.281C0.537109 899.681 9.33711 868.481 26.9371 841.681C44.9371 814.881 70.3371 794.281 103.137 779.881C136.337 765.481 175.137 758.281 219.537 758.281C239.937 758.281 256.537 759.681 269.337 762.481V749.881C269.337 719.481 263.737 696.881 252.537 682.081C241.337 666.881 224.337 659.281 201.537 659.281C164.737 659.281 141.137 678.681 130.737 717.481C127.537 728.681 120.937 733.481 110.937 731.881L29.3371 717.481C23.3371 716.281 19.1371 713.681 16.7371 709.681C14.7371 705.681 14.5371 700.281 16.1371 693.481C26.5371 652.681 48.5371 621.081 82.1371 598.681C116.137 575.881 158.737 564.481 209.937 564.481C270.737 564.481 316.937 580.881 348.537 613.681C380.537 646.481 396.537 694.281 396.537 757.081V1058.88C396.537 1063.28 394.937 1067.08 391.737 1070.28C388.937 1073.08 385.337 1074.48 380.937 1074.48H302.937C293.337 1074.48 287.337 1069.28 284.937 1058.88L272.937 1002.48H268.137C257.337 1028.88 241.137 1049.28 219.537 1063.68C198.337 1078.08 173.137 1085.28 143.937 1085.28ZM131.337 920.881C131.337 942.081 136.737 959.081 147.537 971.881C158.737 984.281 173.737 990.481 192.537 990.481C217.337 990.481 236.337 979.481 249.537 957.481C262.737 935.081 269.337 903.081 269.337 861.481V829.681C258.137 827.681 247.537 826.681 237.537 826.681C204.737 826.681 178.737 835.281 159.537 852.481C140.737 869.281 131.337 892.081 131.337 920.881ZM470.937 590.881C470.937 586.481 472.337 582.881 475.137 580.081C478.337 576.881 482.137 575.281 486.537 575.281H565.737C570.137 575.281 573.737 576.681 576.537 579.481C579.737 582.281 581.737 586.081 582.537 590.881L594.537 649.681H599.337C610.137 622.081 625.537 601.081 645.537 586.681C665.937 571.881 689.937 564.481 717.537 564.481C747.137 564.481 772.537 572.281 793.737 587.881C815.337 603.481 831.937 625.681 843.537 654.481H848.337C865.937 624.081 885.737 601.481 907.737 586.681C929.737 571.881 954.337 564.481 981.537 564.481C1011.14 564.481 1036.74 572.481 1058.34 588.481C1080.34 604.481 1097.14 627.281 1108.74 656.881C1120.34 686.481 1126.14 721.481 1126.14 761.881V1058.88C1126.14 1063.28 1124.54 1067.08 1121.34 1070.28C1118.54 1073.08 1114.94 1074.48 1110.54 1074.48H1014.54C1010.14 1074.48 1006.34 1073.08 1003.14 1070.28C1000.34 1067.08 998.937 1063.28 998.937 1058.88V771.481C998.937 742.281 993.337 719.881 982.137 704.281C970.937 688.681 954.737 680.881 933.537 680.881C910.337 680.881 892.537 690.081 880.137 708.481C868.137 726.881 862.137 753.481 862.137 788.281V1058.88C862.137 1063.28 860.537 1067.08 857.337 1070.28C854.537 1073.08 850.937 1074.48 846.537 1074.48H750.537C746.137 1074.48 742.337 1073.08 739.137 1070.28C736.337 1067.08 734.937 1063.28 734.937 1058.88V771.481C734.937 742.281 729.337 719.881 718.137 704.281C706.937 688.681 690.737 680.881 669.537 680.881C646.337 680.881 628.537 690.081 616.137 708.481C604.137 726.881 598.137 753.481 598.137 788.281V1058.88C598.137 1063.28 596.537 1067.08 593.337 1070.28C590.537 1073.08 586.937 1074.48 582.537 1074.48H486.537C482.137 1074.48 478.337 1073.08 475.137 1070.28C472.337 1067.08 470.937 1063.28 470.937 1058.88V590.881ZM1188.54 935.281C1188.54 899.681 1197.34 868.481 1214.94 841.681C1232.94 814.881 1258.34 794.281 1291.14 779.881C1324.34 765.481 1363.14 758.281 1407.54 758.281C1427.94 758.281 1444.54 759.681 1457.34 762.481V749.881C1457.34 719.481 1451.74 696.881 1440.54 682.081C1429.34 666.881 1412.34 659.281 1389.54 659.281C1352.74 659.281 1329.14 678.681 1318.74 717.481C1315.54 728.681 1308.94 733.481 1298.94 731.881L1217.34 717.481C1211.34 716.281 1207.14 713.681 1204.74 709.681C1202.74 705.681 1202.54 700.281 1204.14 693.481C1214.54 652.681 1236.54 621.081 1270.14 598.681C1304.14 575.881 1346.74 564.481 1397.94 564.481C1458.74 564.481 1504.94 580.881 1536.54 613.681C1568.54 646.481 1584.54 694.281 1584.54 757.081V1058.88C1584.54 1063.28 1582.94 1067.08 1579.74 1070.28C1576.94 1073.08 1573.34 1074.48 1568.94 1074.48H1490.94C1481.34 1074.48 1475.34 1069.28 1472.94 1058.88L1460.94 1002.48H1456.14C1445.34 1028.88 1429.14 1049.28 1407.54 1063.68C1386.34 1078.08 1361.14 1085.28 1331.94 1085.28C1303.54 1085.28 1278.54 1079.08 1256.94 1066.68C1235.34 1053.88 1218.54 1036.28 1206.54 1013.88C1194.54 991.081 1188.54 964.881 1188.54 935.281ZM1319.34 920.881C1319.34 942.081 1324.74 959.081 1335.54 971.881C1346.74 984.281 1361.74 990.481 1380.54 990.481C1405.34 990.481 1424.34 979.481 1437.54 957.481C1450.74 935.081 1457.34 903.081 1457.34 861.481V829.681C1446.14 827.681 1435.54 826.681 1425.54 826.681C1392.74 826.681 1366.74 835.281 1347.54 852.481C1328.74 869.281 1319.34 892.081 1319.34 920.881ZM1649.34 986.281C1649.34 977.481 1651.74 969.881 1656.54 963.481L1861.74 676.081H1669.74C1665.34 676.081 1661.54 674.681 1658.34 671.881C1655.54 668.681 1654.14 664.881 1654.14 660.481V590.881C1654.14 586.481 1655.54 582.881 1658.34 580.081C1661.54 576.881 1665.34 575.281 1669.74 575.281H1985.34C1989.74 575.281 1993.34 576.881 1996.14 580.081C1999.34 582.881 2000.94 586.481 2000.94 590.881V663.481C2000.94 672.281 1998.54 679.881 1993.74 686.281L1807.74 941.881C1818.94 939.881 1830.34 938.881 1841.94 938.881C1870.74 938.881 1897.14 941.481 1921.14 946.681C1945.54 951.481 1970.74 959.481 1996.74 970.681C2005.94 974.681 2010.54 981.481 2010.54 991.081V1060.08C2010.54 1066.48 2008.54 1070.88 2004.54 1073.28C2000.54 1075.28 1995.54 1075.08 1989.54 1072.68C1959.54 1061.48 1932.94 1053.68 1909.74 1049.28C1886.94 1044.48 1861.94 1042.08 1834.74 1042.08C1807.94 1042.08 1781.54 1044.48 1755.54 1049.28C1729.94 1054.08 1701.54 1061.88 1670.34 1072.68C1664.34 1074.68 1659.34 1074.68 1655.34 1072.68C1651.34 1070.28 1649.34 1066.08 1649.34 1060.08V986.281ZM2036.94 824.881C2036.94 776.081 2046.34 731.881 2065.14 692.281C2083.94 652.281 2109.74 621.081 2142.54 598.681C2175.74 575.881 2212.54 564.481 2252.94 564.481C2293.74 564.481 2330.54 575.881 2363.34 598.681C2396.54 621.081 2422.54 652.281 2441.34 692.281C2460.54 731.881 2470.14 776.081 2470.14 824.881C2470.14 873.681 2460.54 918.081 2441.34 958.081C2422.54 997.681 2396.54 1028.88 2363.34 1051.68C2330.54 1074.08 2293.74 1085.28 2252.94 1085.28C2212.54 1085.28 2175.74 1074.08 2142.54 1051.68C2109.74 1028.88 2083.94 997.681 2065.14 958.081C2046.34 918.081 2036.94 873.681 2036.94 824.881ZM2168.94 824.881C2168.94 875.681 2176.14 914.881 2190.54 942.481C2204.94 969.681 2225.74 983.281 2252.94 983.281C2280.14 983.281 2301.14 969.681 2315.94 942.481C2330.74 914.881 2338.14 875.681 2338.14 824.881C2338.14 774.081 2330.74 735.081 2315.94 707.881C2301.14 680.281 2280.14 666.481 2252.94 666.481C2225.74 666.481 2204.94 680.281 2190.54 707.881C2176.14 735.081 2168.94 774.081 2168.94 824.881ZM2534.94 590.881C2534.94 586.481 2536.34 582.881 2539.14 580.081C2542.34 576.881 2546.14 575.281 2550.54 575.281H2629.74C2634.14 575.281 2637.74 576.681 2640.54 579.481C2643.74 582.281 2645.74 586.081 2646.54 590.881L2658.54 649.681H2663.34C2674.14 622.481 2689.94 601.481 2710.74 586.681C2731.94 571.881 2756.74 564.481 2785.14 564.481C2815.54 564.481 2841.74 572.481 2863.74 588.481C2886.14 604.481 2903.34 627.281 2915.34 656.881C2927.34 686.481 2933.34 721.481 2933.34 761.881V1058.88C2933.34 1063.28 2931.74 1067.08 2928.54 1070.28C2925.74 1073.08 2922.14 1074.48 2917.74 1074.48H2821.74C2817.34 1074.48 2813.54 1073.08 2810.34 1070.28C2807.54 1067.08 2806.14 1063.28 2806.14 1058.88V771.481C2806.14 742.281 2800.14 719.881 2788.14 704.281C2776.14 688.681 2759.14 680.881 2737.14 680.881C2712.74 680.881 2694.14 690.081 2681.34 708.481C2668.54 726.881 2662.14 753.481 2662.14 788.281V1058.88C2662.14 1063.28 2660.54 1067.08 2657.34 1070.28C2654.54 1073.08 2650.94 1074.48 2646.54 1074.48H2550.54C2546.14 1074.48 2542.34 1073.08 2539.14 1070.28C2536.34 1067.08 2534.94 1063.28 2534.94 1058.88V590.881Z" fill="#161D26"/>
<path d="M334.136 1143.48C326.536 1149.48 324.936 1159.48 329.336 1173.48C333.336 1185.88 342.736 1201.28 357.536 1219.68C417.136 1293.28 488.136 1354.48 570.536 1403.28C652.936 1452.08 741.136 1488.08 835.136 1511.28C929.536 1534.88 1025.94 1546.68 1124.34 1546.68C1250.34 1546.68 1370.34 1528.28 1484.34 1491.48C1598.34 1455.08 1693.54 1403.88 1769.94 1337.88C1796.74 1314.28 1810.14 1295.48 1810.14 1281.48C1810.14 1276.28 1807.94 1271.08 1803.54 1265.88C1797.54 1259.88 1790.34 1257.88 1781.94 1259.88C1773.54 1261.88 1761.74 1266.88 1746.54 1274.88C1673.34 1313.28 1584.14 1343.88 1478.94 1366.68C1374.14 1389.88 1264.74 1401.48 1150.74 1401.48C1009.54 1401.48 873.136 1382.28 741.536 1343.88C609.936 1305.48 493.336 1245.48 391.736 1163.88C376.936 1152.28 364.936 1144.88 355.736 1141.68C346.936 1138.48 339.736 1139.08 334.136 1143.48Z" fill="#161D26"/>
<path d="M1667.34 1173.48C1658.94 1181.48 1656.74 1189.88 1660.74 1198.68C1663.54 1205.08 1668.94 1208.68 1676.94 1209.48C1684.94 1210.68 1696.34 1209.88 1711.14 1207.08C1735.14 1201.88 1760.14 1198.28 1786.14 1196.28C1812.14 1194.68 1834.74 1195.08 1853.94 1197.48C1873.14 1200.28 1885.14 1205.08 1889.94 1211.88C1897.14 1222.68 1894.54 1245.48 1882.14 1280.28C1870.14 1315.08 1853.74 1348.88 1832.94 1381.68C1824.94 1394.88 1820.14 1405.28 1818.54 1412.88C1816.94 1420.48 1818.94 1426.88 1824.54 1432.08C1828.14 1435.68 1832.14 1437.48 1836.54 1437.48C1848.14 1437.48 1864.94 1427.28 1886.94 1406.88C1926.54 1372.48 1954.34 1331.68 1970.34 1284.48C1979.14 1260.08 1984.54 1234.48 1986.54 1207.68C1988.54 1180.88 1985.54 1161.68 1977.54 1150.08C1969.94 1138.88 1953.14 1129.68 1927.14 1122.48C1901.54 1115.28 1875.74 1111.68 1849.74 1111.68C1798.94 1111.68 1750.74 1123.68 1705.14 1147.68C1688.34 1156.88 1675.74 1165.48 1667.34 1173.48Z" fill="#161D26"/>
<path d="M3958.78 728.893C3953.98 729.693 3949.78 729.093 3946.18 727.093C3942.98 725.093 3941.18 721.693 3940.78 716.893C3937.98 700.093 3930.58 687.093 3918.58 677.893C3906.98 668.693 3892.58 664.093 3875.38 664.093C3858.18 664.093 3844.38 668.293 3833.98 676.693C3823.58 684.693 3818.38 695.493 3818.38 709.093C3818.38 733.493 3836.78 750.093 3873.58 758.893L3943.78 776.293C3986.58 786.693 4017.98 804.093 4037.98 828.493C4057.98 852.893 4067.98 884.093 4067.98 922.093C4067.98 953.293 4059.78 981.493 4043.38 1006.69C4026.98 1031.49 4004.38 1051.09 3975.58 1065.49C3947.18 1079.49 3915.38 1086.49 3880.18 1086.49C3828.98 1086.49 3785.58 1072.89 3749.98 1045.69C3714.38 1018.09 3693.18 978.093 3686.38 925.693C3685.58 920.893 3686.38 916.893 3688.78 913.693C3691.18 910.493 3694.78 908.493 3699.58 907.693L3782.38 892.093C3787.98 891.293 3792.18 892.093 3794.98 894.493C3798.18 896.893 3800.38 901.293 3801.58 907.693C3805.58 933.693 3814.38 953.293 3827.98 966.493C3841.58 979.293 3858.98 985.693 3880.18 985.693C3899.38 985.693 3914.78 981.093 3926.38 971.893C3938.38 962.293 3944.38 949.493 3944.38 933.493C3944.38 918.293 3939.78 906.093 3930.58 896.893C3921.38 887.693 3906.78 880.693 3886.78 875.893L3834.58 863.293C3784.18 850.893 3748.18 832.693 3726.58 808.693C3705.38 784.293 3694.78 753.693 3694.78 716.893C3694.78 684.893 3702.78 657.493 3718.78 634.693C3734.78 611.493 3756.38 593.893 3783.58 581.893C3810.78 569.493 3841.38 563.293 3875.38 563.293C3925.78 563.293 3966.38 575.293 3997.18 599.293C4027.98 622.893 4047.98 654.893 4057.18 695.293C4059.58 706.493 4055.58 712.893 4045.18 714.493L3958.78 728.893Z" fill="#161D26"/>
<path d="M3223.55 828.493C3223.55 777.693 3232.75 732.293 3251.15 692.293C3269.95 651.893 3295.75 620.293 3328.55 597.493C3361.35 574.693 3398.75 563.293 3440.75 563.293C3481.15 563.293 3516.95 574.293 3548.15 596.293C3579.75 618.293 3604.15 648.893 3621.35 688.093C3638.95 726.893 3647.75 771.293 3647.75 821.293V846.493C3647.75 851.293 3646.15 855.093 3642.95 857.893C3640.15 860.693 3636.15 862.093 3630.95 862.093H3356.75C3362.75 944.493 3390.75 985.693 3440.75 985.693C3481.95 985.693 3507.55 964.293 3517.55 921.493C3519.95 911.493 3525.95 907.493 3535.55 909.493L3624.35 929.293C3635.15 931.693 3638.75 938.093 3635.15 948.493C3619.95 992.893 3595.55 1027.09 3561.95 1051.09C3528.35 1074.69 3487.95 1086.49 3440.75 1086.49C3398.35 1086.49 3360.75 1075.69 3327.95 1054.09C3295.15 1032.49 3269.55 1002.09 3251.15 962.893C3232.75 923.693 3223.55 878.893 3223.55 828.493ZM3518.15 778.093C3514.55 740.493 3506.15 712.093 3492.95 692.893C3480.15 673.693 3462.75 664.093 3440.75 664.093C3419.15 664.093 3400.95 673.893 3386.15 693.493C3371.75 713.093 3362.35 741.293 3357.95 778.093H3518.15Z" fill="#161D26"/>
<path d="M3100.59 1081.69C3078.99 1081.69 3060.99 1074.69 3046.59 1060.69C3032.19 1046.29 3024.99 1027.69 3024.99 1004.89C3024.99 981.693 3032.19 963.093 3046.59 949.093C3060.99 935.093 3078.99 928.093 3100.59 928.093C3122.19 928.093 3140.19 935.093 3154.59 949.093C3168.99 963.093 3176.19 981.693 3176.19 1004.89C3176.19 1027.69 3168.99 1046.29 3154.59 1060.69C3140.19 1074.69 3122.19 1081.69 3100.59 1081.69Z" fill="#161D26"/>
</svg>
