<svg width="3898" height="1547" viewBox="0 0 3898 1547" fill="none" xmlns="http://www.w3.org/2000/svg">
<path d="M3044.22 302.464C3042.62 302.464 3041.31 302.028 3040.3 301.156C3039.42 300.138 3038.99 298.83 3038.99 297.231V87.0671C3038.99 85.4684 3039.42 84.233 3040.3 83.3609C3041.31 82.3435 3042.62 81.8348 3044.22 81.8348H3067.11C3070.16 81.8348 3072.05 83.4336 3072.78 86.6311L3077.14 113.447C3082.66 101.529 3090 92.2994 3099.16 85.7591C3108.46 79.0733 3118.56 75.7305 3129.46 75.7305C3143.71 75.7305 3155.48 81.2535 3164.78 92.2994C3174.08 103.345 3179.97 119.987 3182.44 142.224V143.314C3182.44 145.931 3181.21 147.675 3178.73 148.547L3154.1 157.267C3152.94 157.558 3152.21 157.703 3151.92 157.703C3149.74 157.703 3148.43 156.177 3147.99 153.125C3146.25 139.027 3143.13 128.998 3138.62 123.039C3134.26 116.935 3128.16 113.883 3120.31 113.883C3113.04 113.883 3106.5 116.281 3100.69 121.077C3094.87 125.728 3090.29 132.85 3086.95 142.442C3083.61 152.035 3081.94 163.808 3081.94 177.76V297.231C3081.94 298.83 3081.43 300.138 3080.41 301.156C3079.54 302.028 3078.3 302.464 3076.7 302.464H3044.22Z" fill="#161D26"/>
<path d="M2986.09 81.835C2987.69 81.835 2988.93 82.3436 2989.8 83.3611C2990.82 84.2331 2991.33 85.4685 2991.33 87.0673V297.232C2991.33 298.83 2990.82 300.138 2989.8 301.156C2988.93 302.028 2987.69 302.464 2986.09 302.464H2963.2C2960 302.464 2958.19 300.865 2957.75 297.668L2953.39 268.236C2946.41 281.026 2936.97 290.982 2925.05 298.104C2913.28 305.08 2899.98 308.568 2885.15 308.568C2871.05 308.568 2858.41 305.371 2847.22 298.976C2836.03 292.435 2827.23 283.497 2820.84 272.16C2814.59 260.678 2811.46 247.888 2811.46 233.79V87.0673C2811.46 85.4685 2811.9 84.2331 2812.77 83.3611C2813.79 82.3436 2815.1 81.835 2816.7 81.835H2849.18C2850.78 81.835 2852.02 82.3436 2852.89 83.3611C2853.9 84.2331 2854.41 85.4685 2854.41 87.0673V225.287C2854.41 239.676 2857.97 250.795 2865.1 258.643C2872.36 266.492 2882.61 270.416 2895.84 270.416C2912.7 270.416 2925.63 263.658 2934.64 250.141C2943.8 236.624 2948.38 217.366 2948.38 192.367V87.0673C2948.38 85.4685 2948.81 84.2331 2949.69 83.3611C2950.7 82.3436 2952.01 81.835 2953.61 81.835H2986.09Z" fill="#161D26"/>
<path d="M2691.77 308.568C2650.78 308.568 2622.07 291.49 2605.65 257.335C2605.21 256.463 2605 255.591 2605 254.719C2605 252.975 2606.01 251.521 2608.05 250.359L2630.5 238.804C2631.52 238.223 2632.47 237.932 2633.34 237.932C2634.94 237.932 2636.32 239.022 2637.48 241.202C2647.51 262.567 2665.02 273.25 2690.02 273.25C2703.39 273.25 2714.08 270.416 2722.07 264.748C2730.21 258.934 2734.28 251.231 2734.28 241.638C2734.28 234.952 2732.02 229.502 2727.52 225.287C2723.16 221.072 2717.64 217.729 2710.95 215.259C2704.41 212.642 2695.33 209.808 2683.7 206.756C2668.15 202.541 2655.5 198.399 2645.76 194.329C2636.03 190.114 2627.67 183.792 2620.69 175.362C2613.72 166.932 2610.23 155.741 2610.23 141.788C2610.23 128.417 2613.5 116.79 2620.04 106.906C2626.58 96.8777 2635.88 89.1746 2647.94 83.797C2660.15 78.4193 2674.4 75.7305 2690.68 75.7305C2710.44 75.7305 2727.59 79.9454 2742.13 88.3752C2756.66 96.6597 2767.92 109.014 2775.92 125.437C2776.35 126.309 2776.57 127.182 2776.57 128.054C2776.57 129.652 2775.55 131.033 2773.52 132.196L2751.5 143.532C2750.48 144.114 2749.61 144.404 2748.88 144.404C2747.14 144.404 2745.69 143.314 2744.52 141.134C2739.58 131.251 2732.61 123.693 2723.6 118.461C2714.73 113.229 2704.26 110.613 2692.2 110.613C2679.7 110.613 2669.75 113.301 2662.33 118.679C2655.07 124.057 2651.43 131.251 2651.43 140.262C2651.43 146.657 2653.54 151.89 2657.76 155.959C2662.12 160.029 2667.49 163.299 2673.89 165.77C2680.43 168.241 2689.59 171.075 2701.36 174.272C2717.05 178.487 2729.84 182.775 2739.73 187.135C2749.76 191.35 2758.26 197.745 2765.24 206.32C2772.36 214.75 2775.92 225.941 2775.92 239.894C2775.92 253.702 2772.43 265.765 2765.45 276.084C2758.62 286.403 2748.81 294.397 2736.02 300.066C2723.38 305.734 2708.62 308.568 2691.77 308.568Z" fill="#161D26"/>
<path d="M2415.83 308.568C2395.63 308.568 2377.97 303.844 2362.86 294.397C2347.74 284.805 2336.04 271.215 2327.76 253.629C2319.62 236.043 2315.55 215.549 2315.55 192.149C2315.55 168.749 2319.47 148.329 2327.32 130.888C2335.31 113.301 2346.58 99.7119 2361.11 90.1193C2375.65 80.5268 2392.58 75.7305 2411.91 75.7305C2430.8 75.7305 2447.3 80.4541 2461.4 89.9013C2475.5 99.3485 2486.32 112.647 2493.88 129.798C2501.44 146.803 2505.22 166.642 2505.22 189.315C2505.22 194.257 2505.15 197.89 2505 200.216C2504.71 203.559 2502.89 205.23 2499.55 205.23H2358.5C2360.24 226.45 2366.2 242.946 2376.37 254.719C2386.55 266.346 2400.14 272.16 2417.14 272.16C2428.33 272.16 2438.07 269.544 2446.35 264.311C2454.64 258.934 2461.18 251.158 2465.98 240.984C2467.14 238.804 2468.52 237.714 2470.12 237.714C2470.99 237.714 2471.93 238.005 2472.95 238.586L2496.06 250.359C2498.1 251.521 2499.11 252.975 2499.11 254.719C2499.11 255.591 2498.9 256.463 2498.46 257.335C2490.61 274.049 2479.64 286.767 2465.54 295.487C2451.59 304.208 2435.02 308.568 2415.83 308.568ZM2465.1 174.708C2463.07 154.36 2457.47 138.664 2448.32 127.618C2439.16 116.572 2427.02 111.049 2411.91 111.049C2396.65 111.049 2384.37 116.572 2375.06 127.618C2365.91 138.664 2360.31 154.36 2358.28 174.708H2465.1Z" fill="#161D26"/>
<path d="M2239.79 302.464C2238.19 302.464 2236.88 302.028 2235.86 301.156C2234.99 300.138 2234.55 298.83 2234.55 297.232V5.96669C2234.55 4.36792 2234.99 3.13251 2235.86 2.26045C2236.88 1.24306 2238.19 0.734375 2239.79 0.734375H2272.27C2273.87 0.734375 2275.1 1.24306 2275.98 2.26045C2276.99 3.13251 2277.5 4.36792 2277.5 5.96669V297.232C2277.5 298.83 2276.99 300.138 2275.98 301.156C2275.1 302.028 2273.87 302.464 2272.27 302.464H2239.79Z" fill="#161D26"/>
<path d="M2110.22 308.568C2095.69 308.568 2082.61 305.08 2070.98 298.104C2059.5 291.127 2050.42 281.317 2043.73 268.672L2039.37 297.668C2038.93 300.865 2037.12 302.464 2033.92 302.464H2011.03C2009.43 302.464 2008.12 302.028 2007.1 301.156C2006.23 300.138 2005.8 298.83 2005.8 297.232V5.96669C2005.8 4.36792 2006.23 3.13251 2007.1 2.26045C2008.12 1.24306 2009.43 0.734375 2011.03 0.734375H2043.51C2045.11 0.734375 2046.35 1.24306 2047.22 2.26045C2048.24 3.13251 2048.75 4.36792 2048.75 5.96669V109.305C2055.43 98.6947 2064.08 90.4829 2074.69 84.6693C2085.3 78.7103 2097.14 75.7307 2110.22 75.7307C2127.38 75.7307 2142.42 80.5997 2155.35 90.3376C2168.43 99.9302 2178.54 113.52 2185.66 131.106C2192.78 148.547 2196.34 168.895 2196.34 192.15C2196.34 215.404 2192.78 235.825 2185.66 253.411C2178.54 270.997 2168.43 284.587 2155.35 294.18C2142.42 303.772 2127.38 308.568 2110.22 308.568ZM2048.09 192.15C2048.09 217.003 2052.67 236.406 2061.83 250.359C2070.98 264.166 2083.85 271.07 2100.41 271.07C2116.98 271.07 2129.85 264.166 2139 250.359C2148.16 236.406 2152.74 217.003 2152.74 192.15C2152.74 167.296 2148.16 147.966 2139 134.158C2129.85 120.205 2116.98 113.229 2100.41 113.229C2083.85 113.229 2070.98 120.205 2061.83 134.158C2052.67 147.966 2048.09 167.296 2048.09 192.15Z" fill="#161D26"/>
<path d="M1920.23 302.464C1918.63 302.464 1917.32 302.028 1916.31 301.156C1915.43 300.139 1915 298.831 1915 297.232V87.0677C1915 85.4689 1915.43 84.2335 1916.31 83.3615C1917.32 82.344 1918.63 81.8354 1920.23 81.8354H1952.72C1954.31 81.8354 1955.55 82.344 1956.42 83.3615C1957.44 84.2335 1957.95 85.4689 1957.95 87.0677V297.232C1957.95 298.831 1957.44 300.139 1956.42 301.156C1955.55 302.028 1954.31 302.464 1952.72 302.464H1920.23ZM1908.89 27.5502C1908.89 19.8471 1911.44 13.5974 1916.53 8.80109C1921.76 3.85948 1928.37 1.38867 1936.36 1.38867C1944.5 1.38867 1951.12 3.85948 1956.2 8.80109C1961.44 13.5974 1964.05 19.8471 1964.05 27.5502C1964.05 35.108 1961.44 41.3577 1956.2 46.2993C1951.12 51.0956 1944.5 53.4937 1936.36 53.4937C1928.37 53.4937 1921.76 51.0956 1916.53 46.2993C1911.44 41.3577 1908.89 35.108 1908.89 27.5502Z" fill="#161D26"/>
<path d="M1694.03 302.464C1692.43 302.464 1691.12 302.028 1690.1 301.156C1689.23 300.138 1688.79 298.83 1688.79 297.231V87.0671C1688.79 85.4684 1689.23 84.233 1690.1 83.3609C1691.12 82.3435 1692.43 81.8348 1694.03 81.8348H1716.92C1720.11 81.8348 1721.93 83.4336 1722.37 86.6311L1726.73 116.063C1733.7 103.273 1743.08 93.3895 1754.85 86.4131C1766.77 79.2914 1780.14 75.7305 1794.97 75.7305C1809.06 75.7305 1821.71 79.0007 1832.9 85.541C1844.09 91.9361 1852.81 100.875 1859.06 112.357C1865.46 123.693 1868.65 136.411 1868.65 150.509V297.231C1868.65 298.83 1868.14 300.138 1867.13 301.156C1866.26 302.028 1865.02 302.464 1863.42 302.464H1830.94C1829.34 302.464 1828.03 302.028 1827.01 301.156C1826.14 300.138 1825.71 298.83 1825.71 297.231V159.011C1825.71 144.623 1822.07 133.504 1814.8 125.655C1807.68 117.807 1797.51 113.883 1784.28 113.883C1767.42 113.883 1754.41 120.641 1745.26 134.158C1736.25 147.675 1731.74 166.932 1731.74 191.931V297.231C1731.74 298.83 1731.23 300.138 1730.22 301.156C1729.34 302.028 1728.11 302.464 1726.51 302.464H1694.03Z" fill="#161D26"/>
<path d="M1554.46 308.568C1534.98 308.568 1517.98 303.844 1503.44 294.397C1488.91 284.95 1477.72 271.433 1469.87 253.847C1462.16 236.261 1458.31 215.695 1458.31 192.149C1458.31 168.604 1462.16 148.111 1469.87 130.67C1477.72 113.083 1488.91 99.5665 1503.44 90.1193C1517.98 80.5268 1534.98 75.7305 1554.46 75.7305C1573.93 75.7305 1590.86 80.5268 1605.25 90.1193C1619.79 99.5665 1630.91 113.083 1638.61 130.67C1646.46 148.111 1650.38 168.604 1650.38 192.149C1650.38 215.695 1646.46 236.261 1638.61 253.847C1630.91 271.433 1619.79 284.95 1605.25 294.397C1590.86 303.844 1573.93 308.568 1554.46 308.568ZM1502.13 192.149C1502.13 217.003 1506.71 236.406 1515.87 250.359C1525.02 264.166 1537.89 271.07 1554.46 271.07C1571.03 271.07 1583.89 264.166 1593.04 250.359C1602.2 236.406 1606.78 217.003 1606.78 192.149C1606.78 167.296 1602.2 147.965 1593.04 134.158C1583.89 120.205 1571.03 113.229 1554.46 113.229C1537.89 113.229 1525.02 120.205 1515.87 134.158C1506.71 147.965 1502.13 167.296 1502.13 192.149Z" fill="#161D26"/>
<path d="M1244.6 367.868C1243 367.868 1241.69 367.359 1240.67 366.341C1239.8 365.469 1239.36 364.234 1239.36 362.635V87.0671C1239.36 85.4684 1239.8 84.233 1240.67 83.3609C1241.69 82.3435 1243 81.8348 1244.6 81.8348H1267.49C1270.68 81.8348 1272.5 83.4336 1272.94 86.6311L1277.3 115.627C1283.98 103.127 1293.07 93.3895 1304.55 86.4131C1316.18 79.2914 1329.26 75.7305 1343.79 75.7305C1360.94 75.7305 1375.98 80.5994 1388.92 90.3373C1402 99.9299 1412.1 113.519 1419.22 131.106C1426.35 148.692 1429.91 169.113 1429.91 192.367C1429.91 215.622 1426.35 236.043 1419.22 253.629C1412.1 271.07 1402 284.587 1388.92 294.179C1375.98 303.772 1360.94 308.568 1343.79 308.568C1330.57 308.568 1318.65 305.661 1308.04 299.848C1297.57 294.034 1289 285.749 1282.31 274.994V362.635C1282.31 364.234 1281.8 365.469 1280.79 366.341C1279.91 367.359 1278.68 367.868 1277.08 367.868H1244.6ZM1281.66 192.585C1281.66 217.293 1286.24 236.551 1295.39 250.359C1304.55 264.166 1317.41 271.07 1333.98 271.07C1350.55 271.07 1363.41 264.166 1372.57 250.359C1381.73 236.551 1386.3 217.221 1386.3 192.367C1386.3 167.514 1381.73 148.111 1372.57 134.158C1363.41 120.205 1350.55 113.229 1333.98 113.229C1317.41 113.229 1304.55 120.205 1295.39 134.158C1286.24 148.111 1281.66 167.586 1281.66 192.585Z" fill="#161D26"/>
<path d="M1117.92 308.568C1076.93 308.568 1048.23 291.49 1031.8 257.335C1031.37 256.463 1031.15 255.591 1031.15 254.719C1031.15 252.975 1032.17 251.521 1034.2 250.359L1056.66 238.804C1057.67 238.223 1058.62 237.932 1059.49 237.932C1061.09 237.932 1062.47 239.022 1063.63 241.202C1073.66 262.567 1091.17 273.25 1116.17 273.25C1129.54 273.25 1140.23 270.416 1148.22 264.748C1156.36 258.934 1160.43 251.231 1160.43 241.638C1160.43 234.952 1158.18 229.502 1153.67 225.287C1149.31 221.072 1143.79 217.729 1137.1 215.259C1130.56 212.642 1121.48 209.808 1109.85 206.756C1094.3 202.541 1081.65 198.399 1071.92 194.329C1062.18 190.114 1053.82 183.792 1046.85 175.362C1039.87 166.932 1036.38 155.741 1036.38 141.788C1036.38 128.417 1039.65 116.79 1046.19 106.906C1052.73 96.8777 1062.03 89.1746 1074.1 83.797C1086.31 78.4193 1100.55 75.7305 1116.83 75.7305C1136.59 75.7305 1153.74 79.9454 1168.28 88.3752C1182.81 96.6597 1194.08 109.014 1202.07 125.437C1202.51 126.309 1202.72 127.182 1202.72 128.054C1202.72 129.652 1201.71 131.033 1199.67 132.196L1177.65 143.532C1176.64 144.114 1175.76 144.404 1175.04 144.404C1173.29 144.404 1171.84 143.314 1170.68 141.134C1165.73 131.251 1158.76 123.693 1149.75 118.461C1140.88 113.229 1130.42 110.613 1118.35 110.613C1105.85 110.613 1095.9 113.301 1088.49 118.679C1081.22 124.057 1077.59 131.251 1077.59 140.262C1077.59 146.657 1079.69 151.89 1083.91 155.959C1088.27 160.029 1093.65 163.299 1100.04 165.77C1106.58 168.241 1115.74 171.075 1127.51 174.272C1143.21 178.487 1156 182.775 1165.88 187.135C1175.91 191.35 1184.41 197.745 1191.39 206.32C1198.51 214.75 1202.07 225.941 1202.07 239.894C1202.07 253.702 1198.58 265.765 1191.61 276.084C1184.77 286.403 1174.96 294.397 1162.17 300.066C1149.53 305.734 1134.78 308.568 1117.92 308.568Z" fill="#161D26"/>
<path d="M959.102 302.464C957.504 302.464 956.195 302.028 955.178 301.156C954.306 300.139 953.87 298.831 953.87 297.232V87.0677C953.87 85.4689 954.306 84.2335 955.178 83.3615C956.195 82.344 957.504 81.8354 959.102 81.8354H991.586C993.185 81.8354 994.42 82.344 995.292 83.3615C996.31 84.2335 996.818 85.4689 996.818 87.0677V297.232C996.818 298.831 996.31 300.139 995.292 301.156C994.42 302.028 993.185 302.464 991.586 302.464H959.102ZM947.766 27.5502C947.766 19.8471 950.309 13.5974 955.396 8.80109C960.628 3.85948 967.241 1.38867 975.235 1.38867C983.374 1.38867 989.987 3.85948 995.074 8.80109C1000.31 13.5974 1002.92 19.8471 1002.92 27.5502C1002.92 35.108 1000.31 41.3577 995.074 46.2993C989.987 51.0956 983.374 53.4937 975.235 53.4937C967.241 53.4937 960.628 51.0956 955.396 46.2993C950.309 41.3577 947.766 35.108 947.766 27.5502Z" fill="#161D26"/>
<path d="M801.631 308.568C784.48 308.568 769.365 303.772 756.284 294.18C743.349 284.587 733.32 270.997 726.198 253.411C719.076 235.825 715.516 215.404 715.516 192.15C715.516 168.895 719.076 148.547 726.198 131.106C733.32 113.52 743.349 99.9302 756.284 90.3376C769.365 80.5997 784.48 75.7307 801.631 75.7307C814.711 75.7307 826.557 78.7103 837.167 84.6693C847.777 90.4829 856.425 98.6947 863.11 109.305V5.96669C863.11 4.36792 863.546 3.13251 864.418 2.26045C865.436 1.24306 866.744 0.734375 868.343 0.734375H900.826C902.425 0.734375 903.661 1.24306 904.533 2.26045C905.55 3.13251 906.059 4.36792 906.059 5.96669V297.232C906.059 298.83 905.55 300.138 904.533 301.156C903.661 302.028 902.425 302.464 900.826 302.464H877.935C874.738 302.464 872.921 300.865 872.485 297.668L868.125 268.672C861.439 281.317 852.282 291.127 840.655 298.104C829.173 305.08 816.165 308.568 801.631 308.568ZM759.118 192.15C759.118 217.003 763.696 236.406 772.853 250.359C782.01 264.166 794.872 271.07 811.441 271.07C828.01 271.07 840.873 264.166 850.029 250.359C859.186 236.406 863.764 217.003 863.764 192.15C863.764 167.296 859.186 147.966 850.029 134.158C840.873 120.205 828.01 113.229 811.441 113.229C794.872 113.229 782.01 120.205 772.853 134.158C763.696 147.966 759.118 167.296 759.118 192.15Z" fill="#161D26"/>
<path d="M143.939 1085.28C115.539 1085.28 90.5391 1079.08 68.9391 1066.68C47.3391 1053.88 30.5391 1036.28 18.5391 1013.88C6.53906 991.08 0.539062 964.88 0.539062 935.28C0.539062 899.68 9.33906 868.48 26.9391 841.68C44.9391 814.88 70.3391 794.28 103.139 779.88C136.339 765.48 175.139 758.28 219.539 758.28C239.939 758.28 256.539 759.68 269.339 762.48V749.88C269.339 719.48 263.739 696.88 252.539 682.08C241.339 666.88 224.339 659.28 201.539 659.28C164.739 659.28 141.139 678.68 130.739 717.48C127.539 728.68 120.939 733.48 110.939 731.88L29.3391 717.48C23.3391 716.28 19.1391 713.68 16.7391 709.68C14.7391 705.68 14.5391 700.28 16.1391 693.48C26.5391 652.68 48.5391 621.08 82.1391 598.68C116.139 575.88 158.739 564.48 209.939 564.48C270.739 564.48 316.939 580.88 348.539 613.68C380.539 646.48 396.539 694.28 396.539 757.08V1058.88C396.539 1063.28 394.939 1067.08 391.739 1070.28C388.939 1073.08 385.339 1074.48 380.939 1074.48H302.939C293.339 1074.48 287.339 1069.28 284.939 1058.88L272.939 1002.48H268.139C257.339 1028.88 241.139 1049.28 219.539 1063.68C198.339 1078.08 173.139 1085.28 143.939 1085.28ZM131.339 920.88C131.339 942.08 136.739 959.08 147.539 971.88C158.739 984.28 173.739 990.48 192.539 990.48C217.339 990.48 236.339 979.48 249.539 957.48C262.739 935.08 269.339 903.08 269.339 861.48V829.68C258.139 827.68 247.539 826.68 237.539 826.68C204.739 826.68 178.739 835.28 159.539 852.48C140.739 869.28 131.339 892.08 131.339 920.88ZM470.939 590.88C470.939 586.48 472.339 582.88 475.139 580.08C478.339 576.88 482.139 575.28 486.539 575.28H565.739C570.139 575.28 573.739 576.68 576.539 579.48C579.739 582.28 581.739 586.08 582.539 590.88L594.539 649.68H599.339C610.139 622.08 625.539 601.08 645.539 586.68C665.939 571.88 689.939 564.48 717.539 564.48C747.139 564.48 772.539 572.28 793.739 587.88C815.339 603.48 831.939 625.68 843.539 654.48H848.339C865.939 624.08 885.739 601.48 907.739 586.68C929.739 571.88 954.339 564.48 981.539 564.48C1011.14 564.48 1036.74 572.48 1058.34 588.48C1080.34 604.48 1097.14 627.28 1108.74 656.88C1120.34 686.48 1126.14 721.48 1126.14 761.88V1058.88C1126.14 1063.28 1124.54 1067.08 1121.34 1070.28C1118.54 1073.08 1114.94 1074.48 1110.54 1074.48H1014.54C1010.14 1074.48 1006.34 1073.08 1003.14 1070.28C1000.34 1067.08 998.939 1063.28 998.939 1058.88V771.48C998.939 742.28 993.339 719.88 982.139 704.28C970.939 688.68 954.739 680.88 933.539 680.88C910.339 680.88 892.539 690.08 880.139 708.48C868.139 726.88 862.139 753.48 862.139 788.28V1058.88C862.139 1063.28 860.539 1067.08 857.339 1070.28C854.539 1073.08 850.939 1074.48 846.539 1074.48H750.539C746.139 1074.48 742.339 1073.08 739.139 1070.28C736.339 1067.08 734.939 1063.28 734.939 1058.88V771.48C734.939 742.28 729.339 719.88 718.139 704.28C706.939 688.68 690.739 680.88 669.539 680.88C646.339 680.88 628.539 690.08 616.139 708.48C604.139 726.88 598.139 753.48 598.139 788.28V1058.88C598.139 1063.28 596.539 1067.08 593.339 1070.28C590.539 1073.08 586.939 1074.48 582.539 1074.48H486.539C482.139 1074.48 478.339 1073.08 475.139 1070.28C472.339 1067.08 470.939 1063.28 470.939 1058.88V590.88ZM1188.54 935.28C1188.54 899.68 1197.34 868.48 1214.94 841.68C1232.94 814.88 1258.34 794.28 1291.14 779.88C1324.34 765.48 1363.14 758.28 1407.54 758.28C1427.94 758.28 1444.54 759.68 1457.34 762.48V749.88C1457.34 719.48 1451.74 696.88 1440.54 682.08C1429.34 666.88 1412.34 659.28 1389.54 659.28C1352.74 659.28 1329.14 678.68 1318.74 717.48C1315.54 728.68 1308.94 733.48 1298.94 731.88L1217.34 717.48C1211.34 716.28 1207.14 713.68 1204.74 709.68C1202.74 705.68 1202.54 700.28 1204.14 693.48C1214.54 652.68 1236.54 621.08 1270.14 598.68C1304.14 575.88 1346.74 564.48 1397.94 564.48C1458.74 564.48 1504.94 580.88 1536.54 613.68C1568.54 646.48 1584.54 694.28 1584.54 757.08V1058.88C1584.54 1063.28 1582.94 1067.08 1579.74 1070.28C1576.94 1073.08 1573.34 1074.48 1568.94 1074.48H1490.94C1481.34 1074.48 1475.34 1069.28 1472.94 1058.88L1460.94 1002.48H1456.14C1445.34 1028.88 1429.14 1049.28 1407.54 1063.68C1386.34 1078.08 1361.14 1085.28 1331.94 1085.28C1303.54 1085.28 1278.54 1079.08 1256.94 1066.68C1235.34 1053.88 1218.54 1036.28 1206.54 1013.88C1194.54 991.08 1188.54 964.88 1188.54 935.28ZM1319.34 920.88C1319.34 942.08 1324.74 959.08 1335.54 971.88C1346.74 984.28 1361.74 990.48 1380.54 990.48C1405.34 990.48 1424.34 979.48 1437.54 957.48C1450.74 935.08 1457.34 903.08 1457.34 861.48V829.68C1446.14 827.68 1435.54 826.68 1425.54 826.68C1392.74 826.68 1366.74 835.28 1347.54 852.48C1328.74 869.28 1319.34 892.08 1319.34 920.88ZM1649.34 986.28C1649.34 977.48 1651.74 969.88 1656.54 963.48L1861.74 676.08H1669.74C1665.34 676.08 1661.54 674.68 1658.34 671.88C1655.54 668.68 1654.14 664.88 1654.14 660.48V590.88C1654.14 586.48 1655.54 582.88 1658.34 580.08C1661.54 576.88 1665.34 575.28 1669.74 575.28H1985.34C1989.74 575.28 1993.34 576.88 1996.14 580.08C1999.34 582.88 2000.94 586.48 2000.94 590.88V663.48C2000.94 672.28 1998.54 679.88 1993.74 686.28L1807.74 941.88C1818.94 939.88 1830.34 938.88 1841.94 938.88C1870.74 938.88 1897.14 941.48 1921.14 946.68C1945.54 951.48 1970.74 959.48 1996.74 970.68C2005.94 974.68 2010.54 981.48 2010.54 991.08V1060.08C2010.54 1066.48 2008.54 1070.88 2004.54 1073.28C2000.54 1075.28 1995.54 1075.08 1989.54 1072.68C1959.54 1061.48 1932.94 1053.68 1909.74 1049.28C1886.94 1044.48 1861.94 1042.08 1834.74 1042.08C1807.94 1042.08 1781.54 1044.48 1755.54 1049.28C1729.94 1054.08 1701.54 1061.88 1670.34 1072.68C1664.34 1074.68 1659.34 1074.68 1655.34 1072.68C1651.34 1070.28 1649.34 1066.08 1649.34 1060.08V986.28ZM2036.94 824.88C2036.94 776.08 2046.34 731.88 2065.14 692.28C2083.94 652.28 2109.74 621.08 2142.54 598.68C2175.74 575.88 2212.54 564.48 2252.94 564.48C2293.74 564.48 2330.54 575.88 2363.34 598.68C2396.54 621.08 2422.54 652.28 2441.34 692.28C2460.54 731.88 2470.14 776.08 2470.14 824.88C2470.14 873.68 2460.54 918.08 2441.34 958.08C2422.54 997.68 2396.54 1028.88 2363.34 1051.68C2330.54 1074.08 2293.74 1085.28 2252.94 1085.28C2212.54 1085.28 2175.74 1074.08 2142.54 1051.68C2109.74 1028.88 2083.94 997.68 2065.14 958.08C2046.34 918.08 2036.94 873.68 2036.94 824.88ZM2168.94 824.88C2168.94 875.68 2176.14 914.88 2190.54 942.48C2204.94 969.68 2225.74 983.28 2252.94 983.28C2280.14 983.28 2301.14 969.68 2315.94 942.48C2330.74 914.88 2338.14 875.68 2338.14 824.88C2338.14 774.08 2330.74 735.08 2315.94 707.88C2301.14 680.28 2280.14 666.48 2252.94 666.48C2225.74 666.48 2204.94 680.28 2190.54 707.88C2176.14 735.08 2168.94 774.08 2168.94 824.88ZM2534.94 590.88C2534.94 586.48 2536.34 582.88 2539.14 580.08C2542.34 576.88 2546.14 575.28 2550.54 575.28H2629.74C2634.14 575.28 2637.74 576.68 2640.54 579.48C2643.74 582.28 2645.74 586.08 2646.54 590.88L2658.54 649.68H2663.34C2674.14 622.48 2689.94 601.48 2710.74 586.68C2731.94 571.88 2756.74 564.48 2785.14 564.48C2815.54 564.48 2841.74 572.48 2863.74 588.48C2886.14 604.48 2903.34 627.28 2915.34 656.88C2927.34 686.48 2933.34 721.48 2933.34 761.88V1058.88C2933.34 1063.28 2931.74 1067.08 2928.54 1070.28C2925.74 1073.08 2922.14 1074.48 2917.74 1074.48H2821.74C2817.34 1074.48 2813.54 1073.08 2810.34 1070.28C2807.54 1067.08 2806.14 1063.28 2806.14 1058.88V771.48C2806.14 742.28 2800.14 719.88 2788.14 704.28C2776.14 688.68 2759.14 680.88 2737.14 680.88C2712.74 680.88 2694.14 690.08 2681.34 708.48C2668.54 726.88 2662.14 753.48 2662.14 788.28V1058.88C2662.14 1063.28 2660.54 1067.08 2657.34 1070.28C2654.54 1073.08 2650.94 1074.48 2646.54 1074.48H2550.54C2546.14 1074.48 2542.34 1073.08 2539.14 1070.28C2536.34 1067.08 2534.94 1063.28 2534.94 1058.88V590.88Z" fill="#161D26"/>
<path d="M334.138 1143.48C326.538 1149.48 324.938 1159.48 329.338 1173.48C333.338 1185.88 342.738 1201.28 357.538 1219.68C417.138 1293.28 488.138 1354.48 570.538 1403.28C652.938 1452.08 741.138 1488.08 835.138 1511.28C929.538 1534.88 1025.94 1546.68 1124.34 1546.68C1250.34 1546.68 1370.34 1528.28 1484.34 1491.48C1598.34 1455.08 1693.54 1403.88 1769.94 1337.88C1796.74 1314.28 1810.14 1295.48 1810.14 1281.48C1810.14 1276.28 1807.94 1271.08 1803.54 1265.88C1797.54 1259.88 1790.34 1257.88 1781.94 1259.88C1773.54 1261.88 1761.74 1266.88 1746.54 1274.88C1673.34 1313.28 1584.14 1343.88 1478.94 1366.68C1374.14 1389.88 1264.74 1401.48 1150.74 1401.48C1009.54 1401.48 873.138 1382.28 741.538 1343.88C609.938 1305.48 493.338 1245.48 391.738 1163.88C376.938 1152.28 364.938 1144.88 355.738 1141.68C346.938 1138.48 339.738 1139.08 334.138 1143.48Z" fill="#161D26"/>
<path d="M1667.34 1173.48C1658.94 1181.48 1656.74 1189.88 1660.74 1198.68C1663.54 1205.08 1668.94 1208.68 1676.94 1209.48C1684.94 1210.68 1696.34 1209.88 1711.14 1207.08C1735.14 1201.88 1760.14 1198.28 1786.14 1196.28C1812.14 1194.68 1834.74 1195.08 1853.94 1197.48C1873.14 1200.28 1885.14 1205.08 1889.94 1211.88C1897.14 1222.68 1894.54 1245.48 1882.14 1280.28C1870.14 1315.08 1853.74 1348.88 1832.94 1381.68C1824.94 1394.88 1820.14 1405.28 1818.54 1412.88C1816.94 1420.48 1818.94 1426.88 1824.54 1432.08C1828.14 1435.68 1832.14 1437.48 1836.54 1437.48C1848.14 1437.48 1864.94 1427.28 1886.94 1406.88C1926.54 1372.48 1954.34 1331.68 1970.34 1284.48C1979.14 1260.08 1984.54 1234.48 1986.54 1207.68C1988.54 1180.88 1985.54 1161.68 1977.54 1150.08C1969.94 1138.88 1953.14 1129.68 1927.14 1122.48C1901.54 1115.28 1875.74 1111.68 1849.74 1111.68C1798.94 1111.68 1750.74 1123.68 1705.14 1147.68C1688.34 1156.88 1675.74 1165.48 1667.34 1173.48Z" fill="#161D26"/>
<path d="M3873.24 691.692C3872.04 696.492 3869.44 699.492 3865.44 700.692C3861.84 701.892 3857.24 701.292 3851.64 698.892C3837.64 692.892 3826.04 688.492 3816.84 685.692C3807.64 682.492 3797.64 680.892 3786.84 680.892C3762.04 680.892 3743.24 690.092 3730.44 708.492C3717.64 726.492 3711.24 752.892 3711.24 787.692V1058.89C3711.24 1063.29 3709.84 1067.09 3707.04 1070.29C3704.24 1073.09 3700.44 1074.49 3695.64 1074.49H3599.64C3595.64 1074.49 3592.04 1072.89 3588.84 1069.69C3585.64 1066.49 3584.04 1062.89 3584.04 1058.89V590.892C3584.04 586.092 3585.44 582.292 3588.24 579.492C3591.44 576.692 3595.24 575.292 3599.64 575.292H3678.84C3683.64 575.292 3687.44 576.692 3690.24 579.492C3693.04 582.292 3694.84 586.092 3695.64 590.892L3707.64 649.692H3712.44C3723.24 622.092 3738.84 601.092 3759.24 586.692C3779.64 571.892 3803.64 564.492 3831.24 564.492C3852.44 564.492 3871.64 568.492 3888.84 576.492C3893.24 578.892 3895.84 581.892 3896.64 585.492C3897.84 588.692 3897.64 593.292 3896.04 599.292L3873.24 691.692Z" fill="#161D26"/>
<path d="M3311.4 1074.49C3307.4 1074.49 3303.8 1072.89 3300.6 1069.69C3297.4 1066.49 3295.8 1062.89 3295.8 1058.89V676.092H3226.2C3221.4 676.092 3217.6 674.692 3214.8 671.892C3212 669.092 3210.6 665.292 3210.6 660.492V601.692C3210.6 597.292 3211.8 593.892 3214.2 591.492C3217 589.092 3221 587.292 3226.2 586.092L3296.4 575.292V559.692C3296.4 527.292 3302.8 499.292 3315.6 475.692C3328.8 452.092 3347.2 434.092 3370.8 421.692C3394.8 408.892 3422.2 402.492 3453 402.492C3486.2 402.492 3514.8 407.892 3538.8 418.692C3544.4 421.092 3548 423.492 3549.6 425.892C3551.6 428.292 3552.2 431.492 3551.4 435.492L3539.4 509.892C3538.6 515.092 3536.2 518.292 3532.2 519.492C3528.6 520.692 3524.4 520.092 3519.6 517.692C3510.4 513.292 3502.6 510.092 3496.2 508.092C3490.2 506.092 3483.4 505.092 3475.8 505.092C3459.8 505.092 3447 510.292 3437.4 520.692C3428.2 531.092 3423.6 545.092 3423.6 562.692V575.292H3523.8C3528.6 575.292 3532.4 576.692 3535.2 579.492C3538 582.292 3539.4 586.092 3539.4 590.892V660.492C3539.4 665.292 3538 669.092 3535.2 671.892C3532.4 674.692 3528.6 676.092 3523.8 676.092H3423V1058.89C3423 1063.29 3421.6 1067.09 3418.8 1070.29C3416 1073.09 3412.2 1074.49 3407.4 1074.49H3311.4Z" fill="#161D26"/>
<path d="M3100.59 1081.69C3078.99 1081.69 3060.99 1074.69 3046.59 1060.69C3032.19 1046.29 3024.99 1027.69 3024.99 1004.89C3024.99 981.692 3032.19 963.092 3046.59 949.092C3060.99 935.092 3078.99 928.092 3100.59 928.092C3122.19 928.092 3140.19 935.092 3154.59 949.092C3168.99 963.092 3176.19 981.692 3176.19 1004.89C3176.19 1027.69 3168.99 1046.29 3154.59 1060.69C3140.19 1074.69 3122.19 1081.69 3100.59 1081.69Z" fill="#161D26"/>
</svg>
