<svg width="3792" height="1547" viewBox="0 0 3792 1547" fill="none" xmlns="http://www.w3.org/2000/svg">
<path d="M3074.34 81.835C3075.94 81.835 3077.18 82.3436 3078.05 83.3611C3079.07 84.2331 3079.58 85.4685 3079.58 87.0673V297.232C3079.58 298.83 3079.07 300.138 3078.05 301.156C3077.18 302.028 3075.94 302.464 3074.34 302.464H3051.45C3048.25 302.464 3046.44 300.865 3046 297.668L3041.64 268.236C3034.66 281.026 3025.22 290.982 3013.3 298.104C3001.53 305.08 2988.23 308.568 2973.4 308.568C2959.3 308.568 2946.66 305.371 2935.47 298.976C2924.28 292.435 2915.48 283.497 2909.09 272.16C2902.84 260.678 2899.71 247.888 2899.71 233.79V87.0673C2899.71 85.4685 2900.15 84.2331 2901.02 83.3611C2902.04 82.3436 2903.35 81.835 2904.95 81.835H2937.43C2939.03 81.835 2940.27 82.3436 2941.14 83.3611C2942.15 84.2331 2942.66 85.4685 2942.66 87.0673V225.287C2942.66 239.676 2946.22 250.795 2953.35 258.643C2960.61 266.492 2970.86 270.416 2984.09 270.416C3000.95 270.416 3013.88 263.658 3022.89 250.141C3032.05 236.624 3036.63 217.366 3036.63 192.367V87.0673C3036.63 85.4685 3037.06 84.2331 3037.94 83.3611C3038.95 82.3436 3040.26 81.835 3041.86 81.835H3074.34Z" fill="#161D26"/>
<path d="M2780.02 308.568C2739.03 308.568 2710.32 291.49 2693.9 257.335C2693.46 256.463 2693.25 255.591 2693.25 254.719C2693.25 252.975 2694.26 251.521 2696.3 250.359L2718.75 238.804C2719.77 238.223 2720.72 237.932 2721.59 237.932C2723.19 237.932 2724.57 239.022 2725.73 241.202C2735.76 262.567 2753.27 273.25 2778.27 273.25C2791.64 273.25 2802.33 270.416 2810.32 264.748C2818.46 258.934 2822.53 251.231 2822.53 241.638C2822.53 234.952 2820.28 229.502 2815.77 225.287C2811.41 221.072 2805.89 217.729 2799.2 215.259C2792.66 212.642 2783.58 209.808 2771.95 206.756C2756.4 202.541 2743.75 198.399 2734.01 194.329C2724.28 190.114 2715.92 183.792 2708.94 175.362C2701.97 166.932 2698.48 155.741 2698.48 141.788C2698.48 128.417 2701.75 116.79 2708.29 106.906C2714.83 96.8777 2724.13 89.1746 2736.19 83.797C2748.4 78.4193 2762.65 75.7305 2778.93 75.7305C2798.69 75.7305 2815.84 79.9454 2830.38 88.3752C2844.91 96.6597 2856.17 109.014 2864.17 125.437C2864.6 126.309 2864.82 127.182 2864.82 128.054C2864.82 129.652 2863.8 131.033 2861.77 132.196L2839.75 143.532C2838.73 144.114 2837.86 144.404 2837.13 144.404C2835.39 144.404 2833.94 143.314 2832.77 141.134C2827.83 131.251 2820.86 123.693 2811.85 118.461C2802.98 113.229 2792.51 110.613 2780.45 110.613C2767.95 110.613 2758 113.301 2750.58 118.679C2743.32 124.057 2739.68 131.251 2739.68 140.262C2739.68 146.657 2741.79 151.89 2746.01 155.959C2750.37 160.029 2755.74 163.299 2762.14 165.77C2768.68 168.241 2777.84 171.075 2789.61 174.272C2805.3 178.487 2818.09 182.775 2827.98 187.135C2838.01 191.35 2846.51 197.745 2853.49 206.32C2860.61 214.75 2864.17 225.941 2864.17 239.894C2864.17 253.702 2860.68 265.765 2853.7 276.084C2846.87 286.403 2837.06 294.397 2824.27 300.066C2811.63 305.734 2796.87 308.568 2780.02 308.568Z" fill="#161D26"/>
<path d="M2504.08 308.568C2483.88 308.568 2466.22 303.844 2451.1 294.397C2435.99 284.805 2424.29 271.215 2416 253.629C2407.86 236.043 2403.79 215.549 2403.79 192.149C2403.79 168.749 2407.72 148.329 2415.57 130.888C2423.56 113.301 2434.82 99.7119 2449.36 90.1193C2463.89 80.5268 2480.82 75.7305 2500.15 75.7305C2519.05 75.7305 2535.55 80.4541 2549.64 89.9013C2563.74 99.3485 2574.57 112.647 2582.13 129.798C2589.69 146.803 2593.46 166.642 2593.46 189.315C2593.46 194.257 2593.39 197.89 2593.25 200.216C2592.96 203.559 2591.14 205.23 2587.8 205.23H2446.74C2448.49 226.45 2454.44 242.946 2464.62 254.719C2474.79 266.346 2488.38 272.16 2505.39 272.16C2516.58 272.16 2526.32 269.544 2534.6 264.311C2542.89 258.934 2549.43 251.158 2554.22 240.984C2555.38 238.804 2556.77 237.714 2558.36 237.714C2559.24 237.714 2560.18 238.005 2561.2 238.586L2584.31 250.359C2586.34 251.521 2587.36 252.975 2587.36 254.719C2587.36 255.591 2587.14 256.463 2586.71 257.335C2578.86 274.049 2567.88 286.767 2553.79 295.487C2539.83 304.208 2523.26 308.568 2504.08 308.568ZM2553.35 174.708C2551.31 154.36 2545.72 138.664 2536.56 127.618C2527.41 116.572 2515.27 111.049 2500.15 111.049C2484.89 111.049 2472.61 116.572 2463.31 127.618C2454.15 138.664 2448.56 154.36 2446.52 174.708H2553.35Z" fill="#161D26"/>
<path d="M2328.04 302.464C2326.44 302.464 2325.13 302.028 2324.11 301.156C2323.24 300.138 2322.8 298.83 2322.8 297.232V5.96669C2322.8 4.36792 2323.24 3.13251 2324.11 2.26045C2325.13 1.24306 2326.44 0.734375 2328.04 0.734375H2360.52C2362.12 0.734375 2363.35 1.24306 2364.23 2.26045C2365.24 3.13251 2365.75 4.36792 2365.75 5.96669V297.232C2365.75 298.83 2365.24 300.138 2364.23 301.156C2363.35 302.028 2362.12 302.464 2360.52 302.464H2328.04Z" fill="#161D26"/>
<path d="M2237.24 302.464C2235.64 302.464 2234.33 302.028 2233.31 301.156C2232.44 300.139 2232.01 298.831 2232.01 297.232V87.0677C2232.01 85.4689 2232.44 84.2335 2233.31 83.3615C2234.33 82.344 2235.64 81.8354 2237.24 81.8354H2269.72C2271.32 81.8354 2272.56 82.344 2273.43 83.3615C2274.45 84.2335 2274.96 85.4689 2274.96 87.0677V297.232C2274.96 298.831 2274.45 300.139 2273.43 301.156C2272.56 302.028 2271.32 302.464 2269.72 302.464H2237.24ZM2225.9 27.5502C2225.9 19.8471 2228.45 13.5974 2233.53 8.80109C2238.77 3.85948 2245.38 1.38867 2253.37 1.38867C2261.51 1.38867 2268.12 3.85948 2273.21 8.80109C2278.44 13.5974 2281.06 19.8471 2281.06 27.5502C2281.06 35.108 2278.44 41.3577 2273.21 46.2993C2268.12 51.0956 2261.51 53.4937 2253.37 53.4937C2245.38 53.4937 2238.77 51.0956 2233.53 46.2993C2228.45 41.3577 2225.9 35.108 2225.9 27.5502Z" fill="#161D26"/>
<path d="M2107.67 308.568C2093.14 308.568 2080.06 305.08 2068.43 298.104C2056.95 291.127 2047.87 281.317 2041.18 268.672L2036.82 297.668C2036.38 300.865 2034.57 302.464 2031.37 302.464H2008.48C2006.88 302.464 2005.57 302.028 2004.55 301.156C2003.68 300.138 2003.25 298.83 2003.25 297.232V5.96669C2003.25 4.36792 2003.68 3.13251 2004.55 2.26045C2005.57 1.24306 2006.88 0.734375 2008.48 0.734375H2040.96C2042.56 0.734375 2043.8 1.24306 2044.67 2.26045C2045.69 3.13251 2046.19 4.36792 2046.19 5.96669V109.305C2052.88 98.6947 2061.53 90.4829 2072.14 84.6693C2082.75 78.7103 2094.59 75.7307 2107.67 75.7307C2124.82 75.7307 2139.87 80.5997 2152.8 90.3376C2165.88 99.9302 2175.98 113.52 2183.11 131.106C2190.23 148.547 2193.79 168.895 2193.79 192.15C2193.79 215.404 2190.23 235.825 2183.11 253.411C2175.98 270.997 2165.88 284.587 2152.8 294.18C2139.87 303.772 2124.82 308.568 2107.67 308.568ZM2045.54 192.15C2045.54 217.003 2050.12 236.406 2059.28 250.359C2068.43 264.166 2081.29 271.07 2097.86 271.07C2114.43 271.07 2127.3 264.166 2136.45 250.359C2145.61 236.406 2150.19 217.003 2150.19 192.15C2150.19 167.296 2145.61 147.966 2136.45 134.158C2127.3 120.205 2114.43 113.229 2097.86 113.229C2081.29 113.229 2068.43 120.205 2059.28 134.158C2050.12 147.966 2045.54 167.296 2045.54 192.15Z" fill="#161D26"/>
<path d="M1917.68 302.464C1916.08 302.464 1914.77 302.028 1913.76 301.156C1912.88 300.139 1912.45 298.831 1912.45 297.232V87.0677C1912.45 85.4689 1912.88 84.2335 1913.76 83.3615C1914.77 82.344 1916.08 81.8354 1917.68 81.8354H1950.16C1951.76 81.8354 1953 82.344 1953.87 83.3615C1954.89 84.2335 1955.4 85.4689 1955.4 87.0677V297.232C1955.4 298.831 1954.89 300.139 1953.87 301.156C1953 302.028 1951.76 302.464 1950.16 302.464H1917.68ZM1906.34 27.5502C1906.34 19.8471 1908.89 13.5974 1913.97 8.80109C1919.21 3.85948 1925.82 1.38867 1933.81 1.38867C1941.95 1.38867 1948.57 3.85948 1953.65 8.80109C1958.88 13.5974 1961.5 19.8471 1961.5 27.5502C1961.5 35.108 1958.88 41.3577 1953.65 46.2993C1948.57 51.0956 1941.95 53.4937 1933.81 53.4937C1925.82 53.4937 1919.21 51.0956 1913.97 46.2993C1908.89 41.3577 1906.34 35.108 1906.34 27.5502Z" fill="#161D26"/>
<path d="M1691.47 302.464C1689.88 302.464 1688.57 302.028 1687.55 301.156C1686.68 300.138 1686.24 298.83 1686.24 297.231V87.0671C1686.24 85.4684 1686.68 84.233 1687.55 83.3609C1688.57 82.3435 1689.88 81.8348 1691.47 81.8348H1714.37C1717.56 81.8348 1719.38 83.4336 1719.82 86.6311L1724.18 116.063C1731.15 103.273 1740.53 93.3895 1752.3 86.4131C1764.22 79.2914 1777.59 75.7305 1792.41 75.7305C1806.51 75.7305 1819.16 79.0007 1830.35 85.541C1841.54 91.9361 1850.26 100.875 1856.51 112.357C1862.91 123.693 1866.1 136.411 1866.1 150.509V297.231C1866.1 298.83 1865.59 300.138 1864.58 301.156C1863.7 302.028 1862.47 302.464 1860.87 302.464H1828.39C1826.79 302.464 1825.48 302.028 1824.46 301.156C1823.59 300.138 1823.15 298.83 1823.15 297.231V159.011C1823.15 144.623 1819.52 133.504 1812.25 125.655C1805.13 117.807 1794.96 113.883 1781.73 113.883C1764.87 113.883 1751.86 120.641 1742.71 134.158C1733.7 147.675 1729.19 166.932 1729.19 191.931V297.231C1729.19 298.83 1728.68 300.138 1727.66 301.156C1726.79 302.028 1725.56 302.464 1723.96 302.464H1691.47Z" fill="#161D26"/>
<path d="M1551.91 308.568C1532.43 308.568 1515.42 303.844 1500.89 294.397C1486.36 284.95 1475.16 271.433 1467.32 253.847C1459.61 236.261 1455.76 215.695 1455.76 192.149C1455.76 168.604 1459.61 148.111 1467.32 130.67C1475.16 113.083 1486.36 99.5665 1500.89 90.1193C1515.42 80.5268 1532.43 75.7305 1551.91 75.7305C1571.38 75.7305 1588.31 80.5268 1602.7 90.1193C1617.24 99.5665 1628.36 113.083 1636.06 130.67C1643.91 148.111 1647.83 168.604 1647.83 192.149C1647.83 215.695 1643.91 236.261 1636.06 253.847C1628.36 271.433 1617.24 284.95 1602.7 294.397C1588.31 303.844 1571.38 308.568 1551.91 308.568ZM1499.58 192.149C1499.58 217.003 1504.16 236.406 1513.32 250.359C1522.47 264.166 1535.34 271.07 1551.91 271.07C1568.47 271.07 1581.34 264.166 1590.49 250.359C1599.65 236.406 1604.23 217.003 1604.23 192.149C1604.23 167.296 1599.65 147.965 1590.49 134.158C1581.34 120.205 1568.47 113.229 1551.91 113.229C1535.34 113.229 1522.47 120.205 1513.32 134.158C1504.16 147.965 1499.58 167.296 1499.58 192.149Z" fill="#161D26"/>
<path d="M1242.04 367.868C1240.45 367.868 1239.14 367.359 1238.12 366.341C1237.25 365.469 1236.81 364.234 1236.81 362.635V87.0671C1236.81 85.4684 1237.25 84.233 1238.12 83.3609C1239.14 82.3435 1240.45 81.8348 1242.04 81.8348H1264.94C1268.13 81.8348 1269.95 83.4336 1270.39 86.6311L1274.75 115.627C1281.43 103.127 1290.52 93.3895 1302 86.4131C1313.63 79.2914 1326.71 75.7305 1341.24 75.7305C1358.39 75.7305 1373.43 80.5994 1386.37 90.3373C1399.45 99.9299 1409.55 113.519 1416.67 131.106C1423.79 148.692 1427.36 169.113 1427.36 192.367C1427.36 215.622 1423.79 236.043 1416.67 253.629C1409.55 271.07 1399.45 284.587 1386.37 294.179C1373.43 303.772 1358.39 308.568 1341.24 308.568C1328.01 308.568 1316.1 305.661 1305.49 299.848C1295.02 294.034 1286.45 285.749 1279.76 274.994V362.635C1279.76 364.234 1279.25 365.469 1278.23 366.341C1277.36 367.359 1276.13 367.868 1274.53 367.868H1242.04ZM1279.11 192.585C1279.11 217.293 1283.69 236.551 1292.84 250.359C1302 264.166 1314.86 271.07 1331.43 271.07C1348 271.07 1360.86 264.166 1370.02 250.359C1379.17 236.551 1383.75 217.221 1383.75 192.367C1383.75 167.514 1379.17 148.111 1370.02 134.158C1360.86 120.205 1348 113.229 1331.43 113.229C1314.86 113.229 1302 120.205 1292.84 134.158C1283.69 148.111 1279.11 167.586 1279.11 192.585Z" fill="#161D26"/>
<path d="M1115.37 308.568C1074.38 308.568 1045.68 291.49 1029.25 257.335C1028.82 256.463 1028.6 255.591 1028.6 254.719C1028.6 252.975 1029.62 251.521 1031.65 250.359L1054.11 238.804C1055.12 238.223 1056.07 237.932 1056.94 237.932C1058.54 237.932 1059.92 239.022 1061.08 241.202C1071.11 262.567 1088.62 273.25 1113.62 273.25C1126.99 273.25 1137.68 270.416 1145.67 264.748C1153.81 258.934 1157.88 251.231 1157.88 241.638C1157.88 234.952 1155.63 229.502 1151.12 225.287C1146.76 221.072 1141.24 217.729 1134.55 215.259C1128.01 212.642 1118.93 209.808 1107.3 206.756C1091.75 202.541 1079.1 198.399 1069.37 194.329C1059.63 190.114 1051.27 183.792 1044.29 175.362C1037.32 166.932 1033.83 155.741 1033.83 141.788C1033.83 128.417 1037.1 116.79 1043.64 106.906C1050.18 96.8777 1059.48 89.1746 1071.55 83.797C1083.75 78.4193 1098 75.7305 1114.28 75.7305C1134.04 75.7305 1151.19 79.9454 1165.73 88.3752C1180.26 96.6597 1191.53 109.014 1199.52 125.437C1199.96 126.309 1200.17 127.182 1200.17 128.054C1200.17 129.652 1199.16 131.033 1197.12 132.196L1175.1 143.532C1174.08 144.114 1173.21 144.404 1172.49 144.404C1170.74 144.404 1169.29 143.314 1168.13 141.134C1163.18 131.251 1156.21 123.693 1147.2 118.461C1138.33 113.229 1127.87 110.613 1115.8 110.613C1103.3 110.613 1093.35 113.301 1085.93 118.679C1078.67 124.057 1075.03 131.251 1075.03 140.262C1075.03 146.657 1077.14 151.89 1081.36 155.959C1085.72 160.029 1091.09 163.299 1097.49 165.77C1104.03 168.241 1113.19 171.075 1124.96 174.272C1140.66 178.487 1153.45 182.775 1163.33 187.135C1173.36 191.35 1181.86 197.745 1188.84 206.32C1195.96 214.75 1199.52 225.941 1199.52 239.894C1199.52 253.702 1196.03 265.765 1189.06 276.084C1182.22 286.403 1172.41 294.397 1159.62 300.066C1146.98 305.734 1132.23 308.568 1115.37 308.568Z" fill="#161D26"/>
<path d="M956.552 302.464C954.953 302.464 953.645 302.028 952.627 301.156C951.755 300.139 951.319 298.831 951.319 297.232V87.0677C951.319 85.4689 951.755 84.2335 952.627 83.3615C953.645 82.344 954.953 81.8354 956.552 81.8354H989.035C990.634 81.8354 991.87 82.344 992.742 83.3615C993.759 84.2335 994.268 85.4689 994.268 87.0677V297.232C994.268 298.831 993.759 300.139 992.742 301.156C991.87 302.028 990.634 302.464 989.035 302.464H956.552ZM945.215 27.5502C945.215 19.8471 947.758 13.5974 952.845 8.80109C958.078 3.85948 964.691 1.38867 972.684 1.38867C980.824 1.38867 987.437 3.85948 992.524 8.80109C997.756 13.5974 1000.37 19.8471 1000.37 27.5502C1000.37 35.108 997.756 41.3577 992.524 46.2993C987.437 51.0956 980.824 53.4937 972.684 53.4937C964.691 53.4937 958.078 51.0956 952.845 46.2993C947.758 41.3577 945.215 35.108 945.215 27.5502Z" fill="#161D26"/>
<path d="M799.08 308.568C781.93 308.568 766.814 303.772 753.733 294.18C740.798 284.587 730.769 270.997 723.647 253.411C716.526 235.825 712.965 215.404 712.965 192.15C712.965 168.895 716.526 148.547 723.647 131.106C730.769 113.52 740.798 99.9302 753.733 90.3376C766.814 80.5997 781.93 75.7307 799.08 75.7307C812.161 75.7307 824.006 78.7103 834.616 84.6693C845.226 90.4829 853.874 98.6947 860.559 109.305V5.96669C860.559 4.36792 860.995 3.13251 861.868 2.26045C862.885 1.24306 864.193 0.734375 865.792 0.734375H898.276C899.874 0.734375 901.11 1.24306 901.982 2.26045C902.999 3.13251 903.508 4.36792 903.508 5.96669V297.232C903.508 298.83 902.999 300.138 901.982 301.156C901.11 302.028 899.874 302.464 898.276 302.464H875.384C872.187 302.464 870.37 300.865 869.934 297.668L865.574 268.672C858.888 281.317 849.731 291.127 838.104 298.104C826.622 305.08 813.614 308.568 799.08 308.568ZM756.567 192.15C756.567 217.003 761.146 236.406 770.302 250.359C779.459 264.166 792.321 271.07 808.89 271.07C825.459 271.07 838.322 264.166 847.479 250.359C856.635 236.406 861.214 217.003 861.214 192.15C861.214 167.296 856.635 147.966 847.479 134.158C838.322 120.205 825.459 113.229 808.89 113.229C792.321 113.229 779.459 120.205 770.302 134.158C761.146 147.966 756.567 167.296 756.567 192.15Z" fill="#161D26"/>
<path d="M143.939 1085.28C115.539 1085.28 90.5391 1079.08 68.9391 1066.68C47.3391 1053.88 30.5391 1036.28 18.5391 1013.88C6.53906 991.08 0.539062 964.88 0.539062 935.28C0.539062 899.68 9.33906 868.48 26.9391 841.68C44.9391 814.88 70.3391 794.28 103.139 779.88C136.339 765.48 175.139 758.28 219.539 758.28C239.939 758.28 256.539 759.68 269.339 762.48V749.88C269.339 719.48 263.739 696.88 252.539 682.08C241.339 666.88 224.339 659.28 201.539 659.28C164.739 659.28 141.139 678.68 130.739 717.48C127.539 728.68 120.939 733.48 110.939 731.88L29.3391 717.48C23.3391 716.28 19.1391 713.68 16.7391 709.68C14.7391 705.68 14.5391 700.28 16.1391 693.48C26.5391 652.68 48.5391 621.08 82.1391 598.68C116.139 575.88 158.739 564.48 209.939 564.48C270.739 564.48 316.939 580.88 348.539 613.68C380.539 646.48 396.539 694.28 396.539 757.08V1058.88C396.539 1063.28 394.939 1067.08 391.739 1070.28C388.939 1073.08 385.339 1074.48 380.939 1074.48H302.939C293.339 1074.48 287.339 1069.28 284.939 1058.88L272.939 1002.48H268.139C257.339 1028.88 241.139 1049.28 219.539 1063.68C198.339 1078.08 173.139 1085.28 143.939 1085.28ZM131.339 920.88C131.339 942.08 136.739 959.08 147.539 971.88C158.739 984.28 173.739 990.48 192.539 990.48C217.339 990.48 236.339 979.48 249.539 957.48C262.739 935.08 269.339 903.08 269.339 861.48V829.68C258.139 827.68 247.539 826.68 237.539 826.68C204.739 826.68 178.739 835.28 159.539 852.48C140.739 869.28 131.339 892.08 131.339 920.88ZM470.939 590.88C470.939 586.48 472.339 582.88 475.139 580.08C478.339 576.88 482.139 575.28 486.539 575.28H565.739C570.139 575.28 573.739 576.68 576.539 579.48C579.739 582.28 581.739 586.08 582.539 590.88L594.539 649.68H599.339C610.139 622.08 625.539 601.08 645.539 586.68C665.939 571.88 689.939 564.48 717.539 564.48C747.139 564.48 772.539 572.28 793.739 587.88C815.339 603.48 831.939 625.68 843.539 654.48H848.339C865.939 624.08 885.739 601.48 907.739 586.68C929.739 571.88 954.339 564.48 981.539 564.48C1011.14 564.48 1036.74 572.48 1058.34 588.48C1080.34 604.48 1097.14 627.28 1108.74 656.88C1120.34 686.48 1126.14 721.48 1126.14 761.88V1058.88C1126.14 1063.28 1124.54 1067.08 1121.34 1070.28C1118.54 1073.08 1114.94 1074.48 1110.54 1074.48H1014.54C1010.14 1074.48 1006.34 1073.08 1003.14 1070.28C1000.34 1067.08 998.939 1063.28 998.939 1058.88V771.48C998.939 742.28 993.339 719.88 982.139 704.28C970.939 688.68 954.739 680.88 933.539 680.88C910.339 680.88 892.539 690.08 880.139 708.48C868.139 726.88 862.139 753.48 862.139 788.28V1058.88C862.139 1063.28 860.539 1067.08 857.339 1070.28C854.539 1073.08 850.939 1074.48 846.539 1074.48H750.539C746.139 1074.48 742.339 1073.08 739.139 1070.28C736.339 1067.08 734.939 1063.28 734.939 1058.88V771.48C734.939 742.28 729.339 719.88 718.139 704.28C706.939 688.68 690.739 680.88 669.539 680.88C646.339 680.88 628.539 690.08 616.139 708.48C604.139 726.88 598.139 753.48 598.139 788.28V1058.88C598.139 1063.28 596.539 1067.08 593.339 1070.28C590.539 1073.08 586.939 1074.48 582.539 1074.48H486.539C482.139 1074.48 478.339 1073.08 475.139 1070.28C472.339 1067.08 470.939 1063.28 470.939 1058.88V590.88ZM1188.54 935.28C1188.54 899.68 1197.34 868.48 1214.94 841.68C1232.94 814.88 1258.34 794.28 1291.14 779.88C1324.34 765.48 1363.14 758.28 1407.54 758.28C1427.94 758.28 1444.54 759.68 1457.34 762.48V749.88C1457.34 719.48 1451.74 696.88 1440.54 682.08C1429.34 666.88 1412.34 659.28 1389.54 659.28C1352.74 659.28 1329.14 678.68 1318.74 717.48C1315.54 728.68 1308.94 733.48 1298.94 731.88L1217.34 717.48C1211.34 716.28 1207.14 713.68 1204.74 709.68C1202.74 705.68 1202.54 700.28 1204.14 693.48C1214.54 652.68 1236.54 621.08 1270.14 598.68C1304.14 575.88 1346.74 564.48 1397.94 564.48C1458.74 564.48 1504.94 580.88 1536.54 613.68C1568.54 646.48 1584.54 694.28 1584.54 757.08V1058.88C1584.54 1063.28 1582.94 1067.08 1579.74 1070.28C1576.94 1073.08 1573.34 1074.48 1568.94 1074.48H1490.94C1481.34 1074.48 1475.34 1069.28 1472.94 1058.88L1460.94 1002.48H1456.14C1445.34 1028.88 1429.14 1049.28 1407.54 1063.68C1386.34 1078.08 1361.14 1085.28 1331.94 1085.28C1303.54 1085.28 1278.54 1079.08 1256.94 1066.68C1235.34 1053.88 1218.54 1036.28 1206.54 1013.88C1194.54 991.08 1188.54 964.88 1188.54 935.28ZM1319.34 920.88C1319.34 942.08 1324.74 959.08 1335.54 971.88C1346.74 984.28 1361.74 990.48 1380.54 990.48C1405.34 990.48 1424.34 979.48 1437.54 957.48C1450.74 935.08 1457.34 903.08 1457.34 861.48V829.68C1446.14 827.68 1435.54 826.68 1425.54 826.68C1392.74 826.68 1366.74 835.28 1347.54 852.48C1328.74 869.28 1319.34 892.08 1319.34 920.88ZM1649.34 986.28C1649.34 977.48 1651.74 969.88 1656.54 963.48L1861.74 676.08H1669.74C1665.34 676.08 1661.54 674.68 1658.34 671.88C1655.54 668.68 1654.14 664.88 1654.14 660.48V590.88C1654.14 586.48 1655.54 582.88 1658.34 580.08C1661.54 576.88 1665.34 575.28 1669.74 575.28H1985.34C1989.74 575.28 1993.34 576.88 1996.14 580.08C1999.34 582.88 2000.94 586.48 2000.94 590.88V663.48C2000.94 672.28 1998.54 679.88 1993.74 686.28L1807.74 941.88C1818.94 939.88 1830.34 938.88 1841.94 938.88C1870.74 938.88 1897.14 941.48 1921.14 946.68C1945.54 951.48 1970.74 959.48 1996.74 970.68C2005.94 974.68 2010.54 981.48 2010.54 991.08V1060.08C2010.54 1066.48 2008.54 1070.88 2004.54 1073.28C2000.54 1075.28 1995.54 1075.08 1989.54 1072.68C1959.54 1061.48 1932.94 1053.68 1909.74 1049.28C1886.94 1044.48 1861.94 1042.08 1834.74 1042.08C1807.94 1042.08 1781.54 1044.48 1755.54 1049.28C1729.94 1054.08 1701.54 1061.88 1670.34 1072.68C1664.34 1074.68 1659.34 1074.68 1655.34 1072.68C1651.34 1070.28 1649.34 1066.08 1649.34 1060.08V986.28ZM2036.94 824.88C2036.94 776.08 2046.34 731.88 2065.14 692.28C2083.94 652.28 2109.74 621.08 2142.54 598.68C2175.74 575.88 2212.54 564.48 2252.94 564.48C2293.74 564.48 2330.54 575.88 2363.34 598.68C2396.54 621.08 2422.54 652.28 2441.34 692.28C2460.54 731.88 2470.14 776.08 2470.14 824.88C2470.14 873.68 2460.54 918.08 2441.34 958.08C2422.54 997.68 2396.54 1028.88 2363.34 1051.68C2330.54 1074.08 2293.74 1085.28 2252.94 1085.28C2212.54 1085.28 2175.74 1074.08 2142.54 1051.68C2109.74 1028.88 2083.94 997.68 2065.14 958.08C2046.34 918.08 2036.94 873.68 2036.94 824.88ZM2168.94 824.88C2168.94 875.68 2176.14 914.88 2190.54 942.48C2204.94 969.68 2225.74 983.28 2252.94 983.28C2280.14 983.28 2301.14 969.68 2315.94 942.48C2330.74 914.88 2338.14 875.68 2338.14 824.88C2338.14 774.08 2330.74 735.08 2315.94 707.88C2301.14 680.28 2280.14 666.48 2252.94 666.48C2225.74 666.48 2204.94 680.28 2190.54 707.88C2176.14 735.08 2168.94 774.08 2168.94 824.88ZM2534.94 590.88C2534.94 586.48 2536.34 582.88 2539.14 580.08C2542.34 576.88 2546.14 575.28 2550.54 575.28H2629.74C2634.14 575.28 2637.74 576.68 2640.54 579.48C2643.74 582.28 2645.74 586.08 2646.54 590.88L2658.54 649.68H2663.34C2674.14 622.48 2689.94 601.48 2710.74 586.68C2731.94 571.88 2756.74 564.48 2785.14 564.48C2815.54 564.48 2841.74 572.48 2863.74 588.48C2886.14 604.48 2903.34 627.28 2915.34 656.88C2927.34 686.48 2933.34 721.48 2933.34 761.88V1058.88C2933.34 1063.28 2931.74 1067.08 2928.54 1070.28C2925.74 1073.08 2922.14 1074.48 2917.74 1074.48H2821.74C2817.34 1074.48 2813.54 1073.08 2810.34 1070.28C2807.54 1067.08 2806.14 1063.28 2806.14 1058.88V771.48C2806.14 742.28 2800.14 719.88 2788.14 704.28C2776.14 688.68 2759.14 680.88 2737.14 680.88C2712.74 680.88 2694.14 690.08 2681.34 708.48C2668.54 726.88 2662.14 753.48 2662.14 788.28V1058.88C2662.14 1063.28 2660.54 1067.08 2657.34 1070.28C2654.54 1073.08 2650.94 1074.48 2646.54 1074.48H2550.54C2546.14 1074.48 2542.34 1073.08 2539.14 1070.28C2536.34 1067.08 2534.94 1063.28 2534.94 1058.88V590.88Z" fill="#161D26"/>
<path d="M334.138 1143.48C326.538 1149.48 324.938 1159.48 329.338 1173.48C333.338 1185.88 342.738 1201.28 357.538 1219.68C417.138 1293.28 488.138 1354.48 570.538 1403.28C652.938 1452.08 741.138 1488.08 835.138 1511.28C929.538 1534.88 1025.94 1546.68 1124.34 1546.68C1250.34 1546.68 1370.34 1528.28 1484.34 1491.48C1598.34 1455.08 1693.54 1403.88 1769.94 1337.88C1796.74 1314.28 1810.14 1295.48 1810.14 1281.48C1810.14 1276.28 1807.94 1271.08 1803.54 1265.88C1797.54 1259.88 1790.34 1257.88 1781.94 1259.88C1773.54 1261.88 1761.74 1266.88 1746.54 1274.88C1673.34 1313.28 1584.14 1343.88 1478.94 1366.68C1374.14 1389.88 1264.74 1401.48 1150.74 1401.48C1009.54 1401.48 873.138 1382.28 741.538 1343.88C609.938 1305.48 493.338 1245.48 391.738 1163.88C376.938 1152.28 364.938 1144.88 355.738 1141.68C346.938 1138.48 339.738 1139.08 334.138 1143.48Z" fill="#161D26"/>
<path d="M1667.34 1173.48C1658.94 1181.48 1656.74 1189.88 1660.74 1198.68C1663.54 1205.08 1668.94 1208.68 1676.94 1209.48C1684.94 1210.68 1696.34 1209.88 1711.14 1207.08C1735.14 1201.88 1760.14 1198.28 1786.14 1196.28C1812.14 1194.68 1834.74 1195.08 1853.94 1197.48C1873.14 1200.28 1885.14 1205.08 1889.94 1211.88C1897.14 1222.68 1894.54 1245.48 1882.14 1280.28C1870.14 1315.08 1853.74 1348.88 1832.94 1381.68C1824.94 1394.88 1820.14 1405.28 1818.54 1412.88C1816.94 1420.48 1818.94 1426.88 1824.54 1432.08C1828.14 1435.68 1832.14 1437.48 1836.54 1437.48C1848.14 1437.48 1864.94 1427.28 1886.94 1406.88C1926.54 1372.48 1954.34 1331.68 1970.34 1284.48C1979.14 1260.08 1984.54 1234.48 1986.54 1207.68C1988.54 1180.88 1985.54 1161.68 1977.54 1150.08C1969.94 1138.88 1953.14 1129.68 1927.14 1122.48C1901.54 1115.28 1875.74 1111.68 1849.74 1111.68C1798.94 1111.68 1750.74 1123.68 1705.14 1147.68C1688.34 1156.88 1675.74 1165.48 1667.34 1173.48Z" fill="#161D26"/>
<path d="M3791.66 1046.89C3792.46 1050.49 3791.86 1053.69 3789.86 1056.49C3788.26 1058.89 3784.66 1061.69 3779.06 1064.89C3754.26 1078.49 3724.66 1085.29 3690.26 1085.29C3659.46 1085.29 3632.06 1079.09 3608.06 1066.69C3584.46 1053.89 3566.06 1035.69 3552.86 1012.09C3540.06 988.492 3533.66 960.492 3533.66 928.092V676.092H3464.06C3459.26 676.092 3455.46 674.692 3452.66 671.892C3449.86 669.092 3448.46 665.292 3448.46 660.492V601.692C3448.46 592.892 3453.66 587.692 3464.06 586.092L3533.66 575.292L3546.86 472.092C3548.06 461.692 3553.26 456.492 3562.46 456.492H3645.26C3650.06 456.492 3653.86 457.892 3656.66 460.692C3659.46 463.492 3660.86 467.292 3660.86 472.092V575.292H3761.66C3766.46 575.292 3770.26 576.692 3773.06 579.492C3775.86 582.292 3777.26 586.092 3777.26 590.892V660.492C3777.26 665.292 3775.86 669.092 3773.06 671.892C3770.26 674.692 3766.46 676.092 3761.66 676.092H3660.86V908.892C3660.86 953.692 3677.46 976.092 3710.66 976.092C3725.46 976.092 3740.66 971.492 3756.26 962.292C3761.06 959.492 3765.26 958.692 3768.86 959.892C3772.86 960.692 3775.46 963.692 3776.66 968.892L3791.66 1046.89Z" fill="#161D26"/>
<path d="M3291.44 1074.49C3286.64 1074.49 3282.84 1073.09 3280.04 1070.29C3277.24 1067.49 3275.84 1063.69 3275.84 1058.89V590.892C3275.84 586.092 3277.24 582.292 3280.04 579.492C3282.84 576.692 3286.64 575.292 3291.44 575.292H3387.44C3397.84 575.292 3403.04 580.492 3403.04 590.892V1058.89C3403.04 1063.69 3401.64 1067.49 3398.84 1070.29C3396.04 1073.09 3392.24 1074.49 3387.44 1074.49H3291.44ZM3339.44 536.292C3318.64 536.292 3301.04 529.492 3286.64 515.892C3272.24 502.292 3265.04 484.292 3265.04 461.892C3265.04 439.092 3272.04 421.092 3286.04 407.892C3300.44 394.292 3318.24 387.492 3339.44 387.492C3360.64 387.492 3378.24 394.292 3392.24 407.892C3406.64 421.092 3413.84 439.092 3413.84 461.892C3413.84 484.292 3406.64 502.292 3392.24 515.892C3377.84 529.492 3360.24 536.292 3339.44 536.292Z" fill="#161D26"/>
<path d="M3100.59 1081.69C3078.99 1081.69 3060.99 1074.69 3046.59 1060.69C3032.19 1046.29 3024.99 1027.69 3024.99 1004.89C3024.99 981.692 3032.19 963.092 3046.59 949.092C3060.99 935.092 3078.99 928.092 3100.59 928.092C3122.19 928.092 3140.19 935.092 3154.59 949.092C3168.99 963.092 3176.19 981.692 3176.19 1004.89C3176.19 1027.69 3168.99 1046.29 3154.59 1060.69C3140.19 1074.69 3122.19 1081.69 3100.59 1081.69Z" fill="#161D26"/>
</svg>
