<svg width="4063" height="1547" viewBox="0 0 4063 1547" fill="none" xmlns="http://www.w3.org/2000/svg">
<path d="M2978.19 308.732C2957.55 308.732 2941.56 302.7 2930.22 290.637C2918.89 278.428 2913.22 261.351 2913.22 239.404V118.189H2877.03C2875.43 118.189 2874.12 117.753 2873.1 116.881C2872.23 115.864 2871.8 114.555 2871.8 112.957V87.2312C2871.8 85.6325 2872.23 84.3971 2873.1 83.525C2874.12 82.5076 2875.43 81.9989 2877.03 81.9989H2913.22V17.0311C2913.22 15.4324 2913.65 14.197 2914.53 13.3249C2915.54 12.3075 2916.85 11.7988 2918.45 11.7988H2950.93C2952.53 11.7988 2953.77 12.3075 2954.64 13.3249C2955.66 14.197 2956.17 15.4324 2956.17 17.0311V81.9989H3008.71C3010.31 81.9989 3011.54 82.5076 3012.41 83.525C3013.43 84.3971 3013.94 85.6325 3013.94 87.2312V112.957C3013.94 114.555 3013.43 115.864 3012.41 116.881C3011.54 117.753 3010.31 118.189 3008.71 118.189H2956.17V231.992C2956.17 245.363 2958.49 255.319 2963.14 261.859C2967.79 268.254 2974.92 271.452 2984.51 271.452C2993.52 271.452 3001.95 269.199 3009.8 264.694C3010.81 264.112 3011.83 263.822 3012.85 263.822C3014.59 263.822 3015.9 264.839 3016.77 266.874L3025.93 289.983C3026.22 291.146 3026.37 291.945 3026.37 292.381C3026.37 294.416 3025.35 296.015 3023.31 297.177C3009.65 304.881 2994.61 308.732 2978.19 308.732Z" fill="#161D26"/>
<path d="M2743.55 308.732C2729.01 308.732 2716.08 305.825 2704.74 300.012C2693.55 294.053 2684.76 285.841 2678.36 275.376C2672.11 264.766 2668.99 252.703 2668.99 239.186C2668.99 225.088 2672.4 212.807 2679.23 202.342C2686.06 191.732 2695.66 183.593 2708.01 177.924C2720.51 172.111 2735.12 169.204 2751.83 169.204H2806.33V161.574C2806.33 146.167 2802.05 134.104 2793.47 125.383C2784.9 116.663 2773.27 112.303 2758.59 112.303C2747.25 112.303 2737.3 114.991 2728.72 120.369C2720.29 125.601 2713.61 133.305 2708.66 143.478C2707.65 145.659 2706.27 146.749 2704.52 146.749C2703.8 146.749 2702.85 146.531 2701.69 146.095L2678.8 134.322C2676.62 133.159 2675.53 131.633 2675.53 129.744C2675.53 128.872 2675.74 128 2676.18 127.128C2684.17 110.559 2695.37 97.9138 2709.75 89.1933C2724.29 80.3275 2741.29 75.8945 2760.77 75.8945C2778.5 75.8945 2793.98 79.2374 2807.21 85.9231C2820.58 92.4635 2830.82 101.838 2837.95 114.047C2845.07 126.255 2848.63 140.572 2848.63 156.995V297.395C2848.63 298.994 2848.12 300.302 2847.1 301.32C2846.23 302.192 2844.99 302.628 2843.4 302.628H2821.81C2818.47 302.628 2816.58 301.029 2816.14 297.831L2812 269.054C2805.46 281.699 2796.23 291.509 2784.31 298.486C2772.4 305.317 2758.81 308.732 2743.55 308.732ZM2710.19 236.788C2710.19 248.27 2713.9 257.354 2721.31 264.04C2728.87 270.725 2738.9 274.068 2751.39 274.068C2768.69 274.068 2782.13 267.528 2791.73 254.447C2801.46 241.366 2806.33 222.98 2806.33 199.29H2754.23C2740.86 199.29 2730.17 202.705 2722.18 209.536C2714.19 216.222 2710.19 225.306 2710.19 236.788Z" fill="#161D26"/>
<path d="M2477.64 308.732C2457.44 308.732 2439.78 304.009 2424.66 294.561C2409.55 284.969 2397.85 271.379 2389.56 253.793C2381.42 236.207 2377.35 215.713 2377.35 192.313C2377.35 168.913 2381.28 148.493 2389.13 131.052C2397.12 113.465 2408.38 99.8759 2422.92 90.2834C2437.45 80.6908 2454.38 75.8945 2473.71 75.8945C2492.61 75.8945 2509.1 80.6181 2523.2 90.0654C2537.3 99.5126 2548.13 112.811 2555.69 129.962C2563.24 146.967 2567.02 166.806 2567.02 189.479C2567.02 194.421 2566.95 198.054 2566.81 200.38C2566.51 203.723 2564.7 205.394 2561.36 205.394H2420.3C2422.05 226.614 2428 243.11 2438.18 254.883C2448.35 266.51 2461.94 272.324 2478.95 272.324C2490.14 272.324 2499.88 269.708 2508.16 264.476C2516.44 259.098 2522.99 251.322 2527.78 241.148C2528.94 238.968 2530.32 237.878 2531.92 237.878C2532.8 237.878 2533.74 238.169 2534.76 238.75L2557.87 250.523C2559.9 251.685 2560.92 253.139 2560.92 254.883C2560.92 255.755 2560.7 256.627 2560.27 257.499C2552.42 274.213 2541.44 286.931 2527.35 295.651C2513.39 304.372 2496.82 308.732 2477.64 308.732ZM2526.91 174.872C2524.87 154.524 2519.28 138.828 2510.12 127.782C2500.97 116.736 2488.83 111.213 2473.71 111.213C2458.45 111.213 2446.17 116.736 2436.87 127.782C2427.71 138.828 2422.12 154.524 2420.08 174.872H2526.91Z" fill="#161D26"/>
<path d="M2301.6 302.628C2300 302.628 2298.69 302.192 2297.67 301.32C2296.8 300.303 2296.36 298.995 2296.36 297.396V6.13075C2296.36 4.53199 2296.8 3.29657 2297.67 2.42451C2298.69 1.40713 2300 0.898438 2301.6 0.898438H2334.08C2335.68 0.898438 2336.91 1.40713 2337.79 2.42451C2338.8 3.29657 2339.31 4.53199 2339.31 6.13075V297.396C2339.31 298.995 2338.8 300.303 2337.79 301.32C2336.91 302.192 2335.68 302.628 2334.08 302.628H2301.6Z" fill="#161D26"/>
<path d="M2172.03 308.732C2157.5 308.732 2144.42 305.244 2132.79 298.268C2121.31 291.291 2112.22 281.481 2105.54 268.836L2101.18 297.832C2100.74 301.029 2098.93 302.628 2095.73 302.628H2072.84C2071.24 302.628 2069.93 302.192 2068.91 301.32C2068.04 300.303 2067.6 298.995 2067.6 297.396V6.13075C2067.6 4.53199 2068.04 3.29657 2068.91 2.42451C2069.93 1.40713 2071.24 0.898438 2072.84 0.898438H2105.32C2106.92 0.898438 2108.15 1.40713 2109.03 2.42451C2110.04 3.29657 2110.55 4.53199 2110.55 6.13075V109.469C2117.24 98.8588 2125.89 90.647 2136.5 84.8333C2147.11 78.8743 2158.95 75.8948 2172.03 75.8948C2189.18 75.8948 2204.23 80.7638 2217.16 90.5017C2230.24 100.094 2240.34 113.684 2247.46 131.27C2254.59 148.711 2258.15 169.059 2258.15 192.314C2258.15 215.568 2254.59 235.989 2247.46 253.575C2240.34 271.162 2230.24 284.751 2217.16 294.344C2204.23 303.936 2189.18 308.732 2172.03 308.732ZM2109.9 192.314C2109.9 217.167 2114.48 236.57 2123.63 250.523C2132.79 264.33 2145.65 271.234 2162.22 271.234C2178.79 271.234 2191.65 264.33 2200.81 250.523C2209.97 236.57 2214.54 217.167 2214.54 192.314C2214.54 167.46 2209.97 148.13 2200.81 134.322C2191.65 120.369 2178.79 113.393 2162.22 113.393C2145.65 113.393 2132.79 120.369 2123.63 134.322C2114.48 148.13 2109.9 167.46 2109.9 192.314Z" fill="#161D26"/>
<path d="M1916.12 308.732C1901.59 308.732 1888.65 305.825 1877.31 300.012C1866.12 294.053 1857.33 285.841 1850.93 275.376C1844.68 264.766 1841.56 252.703 1841.56 239.186C1841.56 225.088 1844.97 212.807 1851.81 202.342C1858.64 191.732 1868.23 183.593 1880.58 177.924C1893.08 172.111 1907.69 169.204 1924.4 169.204H1978.91V161.574C1978.91 146.167 1974.62 134.104 1966.04 125.383C1957.47 116.663 1945.84 112.303 1931.16 112.303C1919.83 112.303 1909.87 114.991 1901.29 120.369C1892.86 125.601 1886.18 133.305 1881.24 143.478C1880.22 145.659 1878.84 146.749 1877.1 146.749C1876.37 146.749 1875.42 146.531 1874.26 146.095L1851.37 134.322C1849.19 133.159 1848.1 131.633 1848.1 129.744C1848.1 128.872 1848.32 128 1848.75 127.128C1856.75 110.559 1867.94 97.9138 1882.33 89.1933C1896.86 80.3275 1913.87 75.8945 1933.34 75.8945C1951.07 75.8945 1966.55 79.2374 1979.78 85.9231C1993.15 92.4635 2003.4 101.838 2010.52 114.047C2017.64 126.255 2021.2 140.572 2021.2 156.995V297.395C2021.2 298.994 2020.69 300.302 2019.68 301.32C2018.8 302.192 2017.57 302.628 2015.97 302.628H1994.39C1991.04 302.628 1989.15 301.029 1988.72 297.831L1984.58 269.054C1978.04 281.699 1968.81 291.509 1956.89 298.486C1944.97 305.317 1931.38 308.732 1916.12 308.732ZM1882.76 236.788C1882.76 248.27 1886.47 257.354 1893.88 264.04C1901.44 270.725 1911.47 274.068 1923.97 274.068C1941.26 274.068 1954.71 267.528 1964.3 254.447C1974.04 241.366 1978.91 222.98 1978.91 199.29H1926.8C1913.43 199.29 1902.75 202.705 1894.75 209.536C1886.76 216.222 1882.76 225.306 1882.76 236.788Z" fill="#161D26"/>
<path d="M1767.33 302.628C1765.73 302.628 1764.42 302.192 1763.41 301.32C1762.53 300.303 1762.1 298.995 1762.1 297.396V6.13075C1762.1 4.53199 1762.53 3.29657 1763.41 2.42451C1764.42 1.40713 1765.73 0.898438 1767.33 0.898438H1799.81C1801.41 0.898438 1802.65 1.40713 1803.52 2.42451C1804.54 3.29657 1805.05 4.53199 1805.05 6.13075V297.396C1805.05 298.995 1804.54 300.303 1803.52 301.32C1802.65 302.192 1801.41 302.628 1799.81 302.628H1767.33Z" fill="#161D26"/>
<path d="M1676.53 302.628C1674.93 302.628 1673.62 302.192 1672.61 301.32C1671.73 300.303 1671.3 298.995 1671.3 297.396V87.2317C1671.3 85.633 1671.73 84.3976 1672.61 83.5255C1673.62 82.5081 1674.93 81.9994 1676.53 81.9994H1709.01C1710.61 81.9994 1711.85 82.5081 1712.72 83.5255C1713.74 84.3976 1714.25 85.633 1714.25 87.2317V297.396C1714.25 298.995 1713.74 300.303 1712.72 301.32C1711.85 302.192 1710.61 302.628 1709.01 302.628H1676.53ZM1665.19 27.7143C1665.19 20.0112 1667.74 13.7614 1672.82 8.96515C1678.06 4.02354 1684.67 1.55273 1692.66 1.55273C1700.8 1.55273 1707.42 4.02354 1712.5 8.96515C1717.73 13.7614 1720.35 20.0112 1720.35 27.7143C1720.35 35.272 1717.73 41.5217 1712.5 46.4633C1707.42 51.2596 1700.8 53.6578 1692.66 53.6578C1684.67 53.6578 1678.06 51.2596 1672.82 46.4633C1667.74 41.5217 1665.19 35.272 1665.19 27.7143Z" fill="#161D26"/>
<path d="M1519.81 308.732C1505.28 308.732 1492.34 305.825 1481.01 300.012C1469.82 294.053 1461.02 285.841 1454.63 275.376C1448.38 264.766 1445.25 252.703 1445.25 239.186C1445.25 225.088 1448.67 212.807 1455.5 202.342C1462.33 191.732 1471.92 183.593 1484.28 177.924C1496.78 172.111 1511.38 169.204 1528.1 169.204H1582.6V161.574C1582.6 146.167 1578.31 134.104 1569.74 125.383C1561.16 116.663 1549.54 112.303 1534.86 112.303C1523.52 112.303 1513.56 114.991 1504.99 120.369C1496.56 125.601 1489.87 133.305 1484.93 143.478C1483.91 145.659 1482.53 146.749 1480.79 146.749C1480.06 146.749 1479.12 146.531 1477.95 146.095L1455.06 134.322C1452.88 133.159 1451.79 131.633 1451.79 129.744C1451.79 128.872 1452.01 128 1452.45 127.128C1460.44 110.559 1471.63 97.9138 1486.02 89.1933C1500.56 80.3275 1517.56 75.8945 1537.04 75.8945C1554.77 75.8945 1570.25 79.2374 1583.47 85.9231C1596.84 92.4635 1607.09 101.838 1614.21 114.047C1621.33 126.255 1624.9 140.572 1624.9 156.995V297.395C1624.9 298.994 1624.39 300.302 1623.37 301.32C1622.5 302.192 1621.26 302.628 1619.66 302.628H1598.08C1594.74 302.628 1592.85 301.029 1592.41 297.831L1588.27 269.054C1581.73 281.699 1572.5 291.509 1560.58 298.486C1548.66 305.317 1535.07 308.732 1519.81 308.732ZM1486.46 236.788C1486.46 248.27 1490.16 257.354 1497.58 264.04C1505.13 270.725 1515.16 274.068 1527.66 274.068C1544.96 274.068 1558.4 267.528 1567.99 254.447C1577.73 241.366 1582.6 222.98 1582.6 199.29H1530.5C1517.12 199.29 1506.44 202.705 1498.45 209.536C1490.45 216.222 1486.46 225.306 1486.46 236.788Z" fill="#161D26"/>
<path d="M1318.69 302.628C1315.78 302.628 1313.82 301.247 1312.8 298.486L1238.9 88.1034C1238.75 87.6674 1238.68 87.0133 1238.68 86.1413C1238.68 84.8332 1239.04 83.8158 1239.77 83.0891C1240.64 82.3624 1241.8 81.999 1243.26 81.999H1276.83C1279.88 81.999 1281.85 83.4524 1282.72 86.3593L1336.57 249.869L1390.42 86.3593C1391.29 83.4524 1393.25 81.999 1396.3 81.999H1428.79C1430.24 81.999 1431.33 82.3624 1432.06 83.0891C1432.93 83.8158 1433.36 84.7605 1433.36 85.9232C1433.36 86.2139 1433.22 86.9407 1432.93 88.1034L1359.24 298.486C1358.22 301.247 1356.26 302.628 1353.35 302.628H1318.69Z" fill="#161D26"/>
<path d="M1111.69 308.732C1097.15 308.732 1084.22 305.825 1072.88 300.012C1061.69 294.053 1052.9 285.841 1046.5 275.376C1040.25 264.766 1037.13 252.703 1037.13 239.186C1037.13 225.088 1040.54 212.807 1047.37 202.342C1054.2 191.732 1063.8 183.593 1076.15 177.924C1088.65 172.111 1103.26 169.204 1119.97 169.204H1174.47V161.574C1174.47 146.167 1170.19 134.104 1161.61 125.383C1153.04 116.663 1141.41 112.303 1126.73 112.303C1115.39 112.303 1105.44 114.991 1096.86 120.369C1088.43 125.601 1081.75 133.305 1076.8 143.478C1075.79 145.659 1074.41 146.749 1072.66 146.749C1071.94 146.749 1070.99 146.531 1069.83 146.095L1046.94 134.322C1044.76 133.159 1043.67 131.633 1043.67 129.744C1043.67 128.872 1043.88 128 1044.32 127.128C1052.31 110.559 1063.51 97.9138 1077.89 89.1933C1092.43 80.3275 1109.43 75.8945 1128.91 75.8945C1146.64 75.8945 1162.12 79.2374 1175.35 85.9231C1188.72 92.4635 1198.96 101.838 1206.09 114.047C1213.21 126.255 1216.77 140.572 1216.77 156.995V297.395C1216.77 298.994 1216.26 300.302 1215.24 301.32C1214.37 302.192 1213.14 302.628 1211.54 302.628H1189.95C1186.61 302.628 1184.72 301.029 1184.29 297.831L1180.14 269.054C1173.6 281.699 1164.37 291.509 1152.46 298.486C1140.54 305.317 1126.95 308.732 1111.69 308.732ZM1078.33 236.788C1078.33 248.27 1082.04 257.354 1089.45 264.04C1097.01 270.725 1107.04 274.068 1119.54 274.068C1136.83 274.068 1150.28 267.528 1159.87 254.447C1169.61 241.366 1174.47 222.98 1174.47 199.29H1122.37C1109 199.29 1098.32 202.705 1090.32 209.536C1082.33 216.222 1078.33 225.306 1078.33 236.788Z" fill="#161D26"/>
<path d="M143.886 1085.44C115.486 1085.44 90.4863 1079.24 68.8863 1066.84C47.2863 1054.04 30.4863 1036.44 18.4863 1014.04C6.48633 991.245 0.486328 965.045 0.486328 935.445C0.486328 899.845 9.28633 868.645 26.8863 841.845C44.8863 815.045 70.2863 794.444 103.086 780.044C136.286 765.645 175.086 758.445 219.486 758.445C239.886 758.445 256.486 759.845 269.286 762.645V750.045C269.286 719.645 263.686 697.045 252.486 682.245C241.286 667.045 224.286 659.445 201.486 659.445C164.686 659.445 141.086 678.845 130.686 717.645C127.486 728.845 120.886 733.644 110.886 732.044L29.2863 717.645C23.2863 716.445 19.0863 713.844 16.6863 709.844C14.6863 705.844 14.4863 700.445 16.0863 693.645C26.4863 652.845 48.4863 621.244 82.0863 598.844C116.086 576.044 158.686 564.645 209.886 564.645C270.686 564.645 316.886 581.045 348.486 613.845C380.486 646.645 396.486 694.445 396.486 757.245V1059.04C396.486 1063.44 394.886 1067.24 391.686 1070.44C388.886 1073.24 385.286 1074.64 380.886 1074.64H302.886C293.286 1074.64 287.286 1069.44 284.886 1059.04L272.886 1002.64H268.086C257.286 1029.04 241.086 1049.44 219.486 1063.84C198.286 1078.24 173.086 1085.44 143.886 1085.44ZM131.286 921.044C131.286 942.244 136.686 959.245 147.486 972.045C158.686 984.445 173.686 990.645 192.486 990.645C217.286 990.645 236.286 979.645 249.486 957.645C262.686 935.245 269.286 903.245 269.286 861.645V829.845C258.086 827.845 247.486 826.845 237.486 826.845C204.686 826.845 178.686 835.445 159.486 852.645C140.686 869.445 131.286 892.244 131.286 921.044ZM470.886 591.044C470.886 586.645 472.286 583.045 475.086 580.245C478.286 577.045 482.086 575.445 486.486 575.445H565.686C570.086 575.445 573.686 576.845 576.486 579.645C579.686 582.445 581.686 586.245 582.486 591.044L594.486 649.845H599.286C610.086 622.245 625.486 601.245 645.486 586.845C665.886 572.045 689.886 564.645 717.486 564.645C747.086 564.645 772.486 572.445 793.686 588.044C815.286 603.645 831.886 625.845 843.486 654.645H848.286C865.886 624.245 885.686 601.645 907.686 586.845C929.686 572.045 954.286 564.645 981.486 564.645C1011.09 564.645 1036.69 572.644 1058.29 588.644C1080.29 604.644 1097.09 627.444 1108.69 657.044C1120.29 686.644 1126.09 721.644 1126.09 762.044V1059.04C1126.09 1063.44 1124.49 1067.24 1121.29 1070.44C1118.49 1073.24 1114.89 1074.64 1110.49 1074.64H1014.49C1010.09 1074.64 1006.29 1073.24 1003.09 1070.44C1000.29 1067.24 998.886 1063.44 998.886 1059.04V771.645C998.886 742.445 993.286 720.045 982.086 704.445C970.886 688.845 954.686 681.044 933.486 681.044C910.286 681.044 892.486 690.245 880.086 708.645C868.086 727.045 862.086 753.645 862.086 788.445V1059.04C862.086 1063.44 860.486 1067.24 857.286 1070.44C854.486 1073.24 850.886 1074.64 846.486 1074.64H750.486C746.086 1074.64 742.286 1073.24 739.086 1070.44C736.286 1067.24 734.886 1063.44 734.886 1059.04V771.645C734.886 742.445 729.286 720.045 718.086 704.445C706.886 688.845 690.686 681.044 669.486 681.044C646.286 681.044 628.486 690.245 616.086 708.645C604.086 727.045 598.086 753.645 598.086 788.445V1059.04C598.086 1063.44 596.486 1067.24 593.286 1070.44C590.486 1073.24 586.886 1074.64 582.486 1074.64H486.486C482.086 1074.64 478.286 1073.24 475.086 1070.44C472.286 1067.24 470.886 1063.44 470.886 1059.04V591.044ZM1188.49 935.445C1188.49 899.845 1197.29 868.645 1214.89 841.845C1232.89 815.045 1258.29 794.444 1291.09 780.044C1324.29 765.645 1363.09 758.445 1407.49 758.445C1427.89 758.445 1444.49 759.845 1457.29 762.645V750.045C1457.29 719.645 1451.69 697.045 1440.49 682.245C1429.29 667.045 1412.29 659.445 1389.49 659.445C1352.69 659.445 1329.09 678.845 1318.69 717.645C1315.49 728.845 1308.89 733.644 1298.89 732.044L1217.29 717.645C1211.29 716.445 1207.09 713.844 1204.69 709.844C1202.69 705.844 1202.49 700.445 1204.09 693.645C1214.49 652.845 1236.49 621.244 1270.09 598.844C1304.09 576.044 1346.69 564.645 1397.89 564.645C1458.69 564.645 1504.89 581.045 1536.49 613.845C1568.49 646.645 1584.49 694.445 1584.49 757.245V1059.04C1584.49 1063.44 1582.89 1067.24 1579.69 1070.44C1576.89 1073.24 1573.29 1074.64 1568.89 1074.64H1490.89C1481.29 1074.64 1475.29 1069.44 1472.89 1059.04L1460.89 1002.64H1456.09C1445.29 1029.04 1429.09 1049.44 1407.49 1063.84C1386.29 1078.24 1361.09 1085.44 1331.89 1085.44C1303.49 1085.44 1278.49 1079.24 1256.89 1066.84C1235.29 1054.04 1218.49 1036.44 1206.49 1014.04C1194.49 991.245 1188.49 965.045 1188.49 935.445ZM1319.29 921.044C1319.29 942.244 1324.69 959.245 1335.49 972.045C1346.69 984.445 1361.69 990.645 1380.49 990.645C1405.29 990.645 1424.29 979.645 1437.49 957.645C1450.69 935.245 1457.29 903.245 1457.29 861.645V829.845C1446.09 827.845 1435.49 826.845 1425.49 826.845C1392.69 826.845 1366.69 835.445 1347.49 852.645C1328.69 869.445 1319.29 892.244 1319.29 921.044ZM1649.29 986.445C1649.29 977.645 1651.69 970.045 1656.49 963.645L1861.69 676.245H1669.69C1665.29 676.245 1661.49 674.845 1658.29 672.045C1655.49 668.845 1654.09 665.044 1654.09 660.644V591.044C1654.09 586.645 1655.49 583.045 1658.29 580.245C1661.49 577.045 1665.29 575.445 1669.69 575.445H1985.29C1989.69 575.445 1993.29 577.045 1996.09 580.245C1999.29 583.045 2000.89 586.645 2000.89 591.044V663.644C2000.89 672.444 1998.49 680.045 1993.69 686.445L1807.69 942.044C1818.89 940.044 1830.29 939.044 1841.89 939.044C1870.69 939.044 1897.09 941.645 1921.09 946.845C1945.49 951.645 1970.69 959.645 1996.69 970.845C2005.89 974.845 2010.49 981.645 2010.49 991.245V1060.24C2010.49 1066.64 2008.49 1071.04 2004.49 1073.44C2000.49 1075.44 1995.49 1075.24 1989.49 1072.84C1959.49 1061.64 1932.89 1053.84 1909.69 1049.44C1886.89 1044.64 1861.89 1042.24 1834.69 1042.24C1807.89 1042.24 1781.49 1044.64 1755.49 1049.44C1729.89 1054.24 1701.49 1062.04 1670.29 1072.84C1664.29 1074.84 1659.29 1074.84 1655.29 1072.84C1651.29 1070.44 1649.29 1066.24 1649.29 1060.24V986.445ZM2036.89 825.045C2036.89 776.245 2046.29 732.045 2065.09 692.445C2083.89 652.445 2109.69 621.244 2142.49 598.844C2175.69 576.044 2212.49 564.645 2252.89 564.645C2293.69 564.645 2330.49 576.044 2363.29 598.844C2396.49 621.244 2422.49 652.445 2441.29 692.445C2460.49 732.045 2470.09 776.245 2470.09 825.045C2470.09 873.845 2460.49 918.245 2441.29 958.245C2422.49 997.845 2396.49 1029.04 2363.29 1051.84C2330.49 1074.24 2293.69 1085.44 2252.89 1085.44C2212.49 1085.44 2175.69 1074.24 2142.49 1051.84C2109.69 1029.04 2083.89 997.845 2065.09 958.245C2046.29 918.245 2036.89 873.845 2036.89 825.045ZM2168.89 825.045C2168.89 875.845 2176.09 915.045 2190.49 942.645C2204.89 969.845 2225.69 983.445 2252.89 983.445C2280.09 983.445 2301.09 969.845 2315.89 942.645C2330.69 915.045 2338.09 875.845 2338.09 825.045C2338.09 774.245 2330.69 735.245 2315.89 708.045C2301.09 680.445 2280.09 666.645 2252.89 666.645C2225.69 666.645 2204.89 680.445 2190.49 708.045C2176.09 735.245 2168.89 774.245 2168.89 825.045ZM2534.89 591.044C2534.89 586.645 2536.29 583.045 2539.09 580.245C2542.29 577.045 2546.09 575.445 2550.49 575.445H2629.69C2634.09 575.445 2637.69 576.845 2640.49 579.645C2643.69 582.445 2645.69 586.245 2646.49 591.044L2658.49 649.845H2663.29C2674.09 622.645 2689.89 601.645 2710.69 586.845C2731.89 572.045 2756.69 564.645 2785.09 564.645C2815.49 564.645 2841.69 572.644 2863.69 588.644C2886.09 604.644 2903.29 627.444 2915.29 657.044C2927.29 686.644 2933.29 721.644 2933.29 762.044V1059.04C2933.29 1063.44 2931.69 1067.24 2928.49 1070.44C2925.69 1073.24 2922.09 1074.64 2917.69 1074.64H2821.69C2817.29 1074.64 2813.49 1073.24 2810.29 1070.44C2807.49 1067.24 2806.09 1063.44 2806.09 1059.04V771.645C2806.09 742.445 2800.09 720.045 2788.09 704.445C2776.09 688.845 2759.09 681.044 2737.09 681.044C2712.69 681.044 2694.09 690.245 2681.29 708.645C2668.49 727.045 2662.09 753.645 2662.09 788.445V1059.04C2662.09 1063.44 2660.49 1067.24 2657.29 1070.44C2654.49 1073.24 2650.89 1074.64 2646.49 1074.64H2550.49C2546.09 1074.64 2542.29 1073.24 2539.09 1070.44C2536.29 1067.24 2534.89 1063.44 2534.89 1059.04V591.044Z" fill="#161D26"/>
<path d="M334.085 1143.65C326.485 1149.65 324.885 1159.65 329.285 1173.65C333.285 1186.05 342.685 1201.45 357.485 1219.85C417.085 1293.45 488.085 1354.65 570.485 1403.45C652.885 1452.25 741.085 1488.25 835.085 1511.45C929.485 1535.05 1025.89 1546.85 1124.29 1546.85C1250.29 1546.85 1370.29 1528.45 1484.29 1491.65C1598.29 1455.25 1693.49 1404.05 1769.89 1338.05C1796.69 1314.45 1810.09 1295.65 1810.09 1281.65C1810.09 1276.45 1807.89 1271.25 1803.49 1266.05C1797.49 1260.05 1790.29 1258.05 1781.89 1260.05C1773.49 1262.05 1761.69 1267.05 1746.49 1275.05C1673.29 1313.45 1584.09 1344.05 1478.89 1366.85C1374.09 1390.05 1264.69 1401.65 1150.69 1401.65C1009.49 1401.65 873.085 1382.45 741.485 1344.05C609.885 1305.65 493.285 1245.65 391.685 1164.05C376.885 1152.45 364.885 1145.05 355.685 1141.85C346.885 1138.65 339.685 1139.25 334.085 1143.65Z" fill="#161D26"/>
<path d="M1667.29 1173.65C1658.89 1181.65 1656.69 1190.05 1660.69 1198.85C1663.49 1205.25 1668.89 1208.85 1676.89 1209.65C1684.89 1210.85 1696.29 1210.05 1711.09 1207.25C1735.09 1202.05 1760.09 1198.45 1786.09 1196.45C1812.09 1194.85 1834.69 1195.25 1853.89 1197.65C1873.09 1200.45 1885.09 1205.25 1889.89 1212.05C1897.09 1222.85 1894.49 1245.65 1882.09 1280.45C1870.09 1315.25 1853.69 1349.05 1832.89 1381.85C1824.89 1395.05 1820.09 1405.45 1818.49 1413.05C1816.89 1420.65 1818.89 1427.05 1824.49 1432.25C1828.09 1435.85 1832.09 1437.65 1836.49 1437.65C1848.09 1437.65 1864.89 1427.45 1886.89 1407.05C1926.49 1372.65 1954.29 1331.85 1970.29 1284.65C1979.09 1260.25 1984.49 1234.65 1986.49 1207.85C1988.49 1181.05 1985.49 1161.85 1977.49 1150.25C1969.89 1139.05 1953.09 1129.85 1927.09 1122.65C1901.49 1115.45 1875.69 1111.85 1849.69 1111.85C1798.89 1111.85 1750.69 1123.85 1705.09 1147.85C1688.29 1157.05 1675.69 1165.65 1667.29 1173.65Z" fill="#161D26"/>
<path d="M3811.01 1086.66C3782.61 1086.66 3757.41 1080.46 3735.41 1068.06C3713.81 1055.26 3697.01 1037.46 3685.01 1014.66C3673.01 991.457 3667.01 965.057 3667.01 935.457C3667.01 899.857 3676.01 868.657 3694.01 841.857C3712.01 815.057 3737.41 794.457 3770.21 780.057C3803.41 765.257 3842.21 757.857 3886.61 757.857C3906.61 757.857 3923.01 759.257 3935.81 762.057V749.457C3935.81 718.257 3930.21 695.257 3919.01 680.457C3908.21 665.657 3891.41 658.257 3868.61 658.257C3832.61 658.257 3809.01 677.857 3797.81 717.057C3794.61 728.257 3788.21 733.057 3778.61 731.457L3694.61 717.057C3689.81 716.257 3686.21 714.057 3683.81 710.457C3681.41 706.457 3681.01 701.457 3682.61 695.457C3693.41 653.057 3715.61 620.457 3749.21 597.657C3782.81 574.857 3825.41 563.457 3877.01 563.457C3937.81 563.457 3984.01 580.057 4015.61 613.257C4047.21 646.057 4063.01 693.857 4063.01 756.657V1059.06C4063.01 1063.46 4061.61 1067.26 4058.81 1070.46C4056.01 1073.26 4052.21 1074.66 4047.41 1074.66H3968.21C3959.41 1074.66 3953.81 1069.46 3951.41 1059.06L3939.41 1002.66H3934.61C3923.81 1029.46 3907.81 1050.26 3886.61 1065.06C3865.41 1079.46 3840.21 1086.66 3811.01 1086.66ZM3797.81 921.057C3797.81 942.657 3803.21 959.857 3814.01 972.657C3825.21 985.457 3840.21 991.857 3859.01 991.857C3884.21 991.857 3903.21 980.857 3916.01 958.857C3929.21 936.457 3935.81 903.857 3935.81 861.057V829.857C3926.21 827.457 3915.81 826.257 3904.61 826.257C3871.81 826.257 3845.81 834.857 3826.61 852.057C3807.41 869.257 3797.81 892.257 3797.81 921.057Z" fill="#161D26"/>
<path d="M3619.49 899.457C3624.29 900.257 3627.69 902.257 3629.69 905.457C3632.09 908.657 3632.89 912.857 3632.09 918.057C3624.89 953.257 3611.89 983.657 3593.09 1009.26C3574.69 1034.46 3552.09 1053.66 3525.29 1066.86C3498.89 1080.06 3470.09 1086.66 3438.89 1086.66C3398.49 1086.66 3361.69 1075.26 3328.49 1052.46C3295.69 1029.66 3269.89 998.257 3251.09 958.257C3232.29 918.257 3222.89 873.857 3222.89 825.057C3222.89 776.257 3232.29 731.857 3251.09 691.857C3269.89 651.857 3295.69 620.457 3328.49 597.657C3361.69 574.857 3398.49 563.457 3438.89 563.457C3470.09 563.457 3498.89 570.057 3525.29 583.257C3552.09 596.457 3574.69 615.857 3593.09 641.457C3611.89 666.657 3624.89 696.857 3632.09 732.057C3632.89 737.257 3632.09 741.457 3629.69 744.657C3627.69 747.857 3624.29 749.857 3619.49 750.657L3532.49 766.257C3522.89 767.857 3516.89 763.657 3514.49 753.657C3501.69 694.857 3476.49 665.457 3438.89 665.457C3411.29 665.457 3390.29 679.057 3375.89 706.257C3361.89 733.457 3354.89 773.057 3354.89 825.057C3354.89 877.057 3361.89 916.657 3375.89 943.857C3390.29 971.057 3411.29 984.657 3438.89 984.657C3476.49 984.657 3501.69 955.257 3514.49 896.457C3516.89 886.057 3522.89 881.857 3532.49 883.857L3619.49 899.457Z" fill="#161D26"/>
<path d="M3100.54 1081.86C3078.94 1081.86 3060.94 1074.86 3046.54 1060.86C3032.14 1046.46 3024.94 1027.86 3024.94 1005.06C3024.94 981.858 3032.14 963.258 3046.54 949.258C3060.94 935.258 3078.94 928.258 3100.54 928.258C3122.14 928.258 3140.14 935.258 3154.54 949.258C3168.94 963.258 3176.14 981.858 3176.14 1005.06C3176.14 1027.86 3168.94 1046.46 3154.54 1060.86C3140.14 1074.86 3122.14 1081.86 3100.54 1081.86Z" fill="#161D26"/>
</svg>
